<svg width="402" height="300" viewBox="0 0 402 300" fill="none" xmlns="http://www.w3.org/2000/svg">
<rect x="0.5" y="0.5" width="401" height="299" rx="11.5" fill="white"/>
<rect x="0.5" y="0.5" width="401" height="299" rx="11.5" stroke="#D0D0D0"/>
<path d="M41.3848 44C41.127 44.2402 40.9307 44.4746 40.7959 44.7031C40.6787 44.8848 40.5938 44.9756 40.541 44.9756C40.5 44.9756 40.4092 44.9463 40.2686 44.8877C36.6182 43.5225 34.166 41.1025 32.9121 37.6279H32.7275C32.2236 38.1963 31.5645 38.7969 30.75 39.4297V43.499C31.998 43.2354 33.4072 42.8516 34.9775 42.3477C34.9307 42.5234 34.9072 42.7314 34.9072 42.9717C34.8955 43.1592 34.8721 43.2734 34.8369 43.3145C34.8018 43.3496 34.6992 43.3906 34.5293 43.4375C32.6484 44.0293 30.5596 44.5508 28.2627 45.002C27.8936 45.0547 27.6475 45.1279 27.5244 45.2217C27.4482 45.2803 27.3779 45.3096 27.3135 45.3096C27.2139 45.3096 27.1406 45.2568 27.0938 45.1514C26.9766 44.8408 26.8682 44.4922 26.7686 44.1055C27.3896 44.0762 28.0635 44 28.79 43.877L29.7041 43.71V40.1504C28.5088 40.918 27.2197 41.5537 25.8369 42.0576C25.7021 42.1104 25.6172 42.1367 25.582 42.1367C25.5176 42.1367 25.4326 42.04 25.3271 41.8467C25.1748 41.6064 25.0078 41.4131 24.8262 41.2666C26.1387 40.8916 27.416 40.3496 28.6582 39.6406C29.7832 39.0078 30.6914 38.3369 31.3828 37.6279H27.5244L25.1865 37.6631C25.0928 37.6631 25.0459 37.6162 25.0459 37.5225V36.8018C25.0459 36.708 25.0928 36.6611 25.1865 36.6611L27.5244 36.6963H32.3145V34.8154H29.8623L27.3486 34.8506C27.2373 34.8506 27.1816 34.8037 27.1816 34.71V34.0068C27.1816 33.9131 27.2373 33.8662 27.3486 33.8662L29.8623 33.9014H32.3145V32.1523H29.1064L26.6104 32.1875C26.499 32.1875 26.4434 32.1406 26.4434 32.0469V31.3262C26.4434 31.2324 26.499 31.1855 26.6104 31.1855L29.1064 31.2207H32.3145V30.8604C32.3145 29.9873 32.2734 29.375 32.1914 29.0234C32.6426 29.041 33.0439 29.0762 33.3955 29.1289C33.542 29.1465 33.6152 29.2021 33.6152 29.2959C33.6152 29.3428 33.5801 29.4512 33.5098 29.6211C33.4336 29.7617 33.3955 30.1748 33.3955 30.8604V31.2207H36.8496L39.3896 31.1855C39.4834 31.1855 39.5303 31.2324 39.5303 31.3262V32.0469C39.5303 32.1406 39.4834 32.1875 39.3896 32.1875L36.8496 32.1523H33.3955V33.9014H36.2256L38.7568 33.8662C38.8564 33.8662 38.9062 33.9131 38.9062 34.0068V34.71C38.9062 34.8037 38.8564 34.8506 38.7568 34.8506L36.2256 34.8154H33.3955V36.6963H38.4756L40.8135 36.6611C40.9072 36.6611 40.9541 36.708 40.9541 36.8018V37.5225C40.9541 37.6162 40.9072 37.6631 40.8135 37.6631L38.4756 37.6279H33.9756C34.3975 38.7119 35.001 39.7021 35.7861 40.5986C36.5596 40.0127 37.2334 39.4238 37.8076 38.832C37.9834 38.6562 38.1445 38.4219 38.291 38.1289C38.7012 38.3984 38.9971 38.6094 39.1787 38.7617C39.2725 38.832 39.3193 38.8994 39.3193 38.9639C39.3193 39.0518 39.2461 39.1221 39.0996 39.1748C38.9238 39.2334 38.7275 39.3652 38.5107 39.5703C37.9072 40.127 37.21 40.6924 36.4189 41.2666C37.7607 42.5674 39.416 43.4785 41.3848 44ZM58.7168 35.7031C58.7168 35.7969 58.667 35.8438 58.5674 35.8438L56.1768 35.8086H51.6592V40.8359L51.6943 43.1387C51.6943 43.7246 51.5391 44.1494 51.2285 44.4131C51.0293 44.5771 50.7275 44.6855 50.3232 44.7383C49.9717 44.7852 49.4268 44.8086 48.6885 44.8086C48.501 44.8086 48.3896 44.791 48.3545 44.7559C48.3193 44.7207 48.2812 44.6182 48.2402 44.4482C48.1523 44.1084 48.0264 43.8213 47.8623 43.5869C48.3721 43.6455 48.9053 43.6748 49.4619 43.6748C49.8779 43.6748 50.1592 43.6016 50.3057 43.4551C50.4287 43.3379 50.4902 43.1416 50.4902 42.8662V35.8086H45.8848L43.5029 35.8438C43.4092 35.8438 43.3623 35.7969 43.3623 35.7031V34.833C43.3623 34.7393 43.4092 34.6924 43.5029 34.6924L45.8848 34.7275H56.1768L58.5674 34.6924C58.667 34.6924 58.7168 34.7393 58.7168 34.833V35.7031ZM56.792 31.5459C56.792 31.6396 56.7451 31.6865 56.6514 31.6865L54.1113 31.6514H47.8271L45.2871 31.6865C45.1934 31.6865 45.1465 31.6396 45.1465 31.5459V30.6758C45.1465 30.582 45.1934 30.5352 45.2871 30.5352L47.8271 30.5703H54.1113L56.6514 30.5352C56.7451 30.5352 56.792 30.582 56.792 30.6758V31.5459ZM47.7041 38.1641C47.7041 38.2402 47.6455 38.3369 47.5283 38.4541C47.4639 38.5186 47.3291 38.7529 47.124 39.1572C46.4443 40.5693 45.4746 41.8438 44.2148 42.9805C44.0684 43.0977 43.9775 43.1562 43.9424 43.1562C43.9014 43.1562 43.8047 43.0889 43.6523 42.9541C43.4297 42.7549 43.1895 42.5996 42.9316 42.4883C43.582 42.0137 44.2061 41.416 44.8037 40.6953C45.2549 40.1504 45.6094 39.6318 45.8672 39.1396C46.1895 38.5361 46.3682 38.0088 46.4033 37.5576C46.8076 37.6689 47.1826 37.8008 47.5283 37.9531C47.6455 38.0117 47.7041 38.082 47.7041 38.1641ZM59.1475 42.2158C58.8838 42.3975 58.6553 42.6084 58.4619 42.8486C58.3447 43.0068 58.2627 43.0859 58.2158 43.0859C58.1807 43.0859 58.0957 43.0186 57.9609 42.8838C56.4727 41.4365 55.3154 39.834 54.4893 38.0762C54.4717 38.041 54.4629 38.0117 54.4629 37.9883C54.4629 37.9473 54.5361 37.8945 54.6826 37.8301L55.1572 37.6279C55.251 37.5811 55.3154 37.5576 55.3506 37.5576C55.3916 37.5576 55.4268 37.5928 55.4561 37.6631C56.3643 39.4736 57.5947 40.9912 59.1475 42.2158ZM74.3789 45.0283C74.3789 45.1221 74.332 45.1689 74.2383 45.1689H73.4033C73.3096 45.1689 73.2627 45.1221 73.2627 45.0283V44.3428H64.7461V45.0986C64.7461 45.1924 64.6934 45.2393 64.5879 45.2393H63.7705C63.6768 45.2393 63.6299 45.1924 63.6299 45.0986L63.665 42.541V41.5479L63.6299 40.0889C63.6299 39.9834 63.6768 39.9307 63.7705 39.9307L66.293 39.9658H71.7334L74.2383 39.9307C74.332 39.9307 74.3789 39.9834 74.3789 40.0889L74.3438 41.3545V42.5059L74.3789 45.0283ZM73.2627 43.3848V40.9238H64.7461V43.3848H73.2627ZM76.8311 33.3125C76.8311 33.4062 76.7812 33.4531 76.6816 33.4531L74.3262 33.418H63.7266L61.3623 33.4531C61.2686 33.4531 61.2217 33.4062 61.2217 33.3125V32.5127C61.2217 32.4189 61.2686 32.3721 61.3623 32.3721L63.7266 32.4072H74.3262L76.6816 32.3721C76.7812 32.3721 76.8311 32.4189 76.8311 32.5127V33.3125ZM74.4844 30.79C74.4844 30.8838 74.4375 30.9307 74.3438 30.9307L71.8389 30.8955H66.1875L63.6914 30.9307C63.5918 30.9307 63.542 30.8838 63.542 30.79V30.043C63.542 29.9375 63.5918 29.8848 63.6914 29.8848L66.1875 29.9199H71.8389L74.3438 29.8848C74.4375 29.8848 74.4844 29.9375 74.4844 30.043V30.79ZM74.1064 35.8174C74.1064 35.9111 74.0596 35.958 73.9658 35.958L71.5137 35.9229H66.5127L64.0693 35.958C63.9697 35.958 63.9199 35.9111 63.9199 35.8174V35.0527C63.9199 34.959 63.9697 34.9121 64.0693 34.9121L66.5127 34.9473H71.5137L73.9658 34.9121C74.0596 34.9121 74.1064 34.959 74.1064 35.0527V35.8174ZM74.1064 38.2959C74.1064 38.3896 74.0596 38.4365 73.9658 38.4365L71.5137 38.4014H66.5127L64.0693 38.4365C63.9697 38.4365 63.9199 38.3896 63.9199 38.2959V37.5312C63.9199 37.4375 63.9697 37.3906 64.0693 37.3906L66.5127 37.4258H71.5137L73.9658 37.3906C74.0596 37.3906 74.1064 37.4375 74.1064 37.5312V38.2959ZM95.1562 37.54C95.1562 37.6338 95.1064 37.6807 95.0068 37.6807L92.5811 37.6455H87.8789L85.4443 37.6807C85.3506 37.6807 85.3037 37.6338 85.3037 37.54V36.8193C85.3037 36.7256 85.3506 36.6787 85.4443 36.6787L87.3779 36.7139C87.7002 35.8408 87.999 34.9209 88.2744 33.9541C87.7822 33.96 87.3486 33.9688 86.9736 33.9805C86.9443 33.9805 86.8506 33.9834 86.6924 33.9893C86.6396 33.9893 86.6074 33.9893 86.5957 33.9893C86.502 33.9893 86.4551 33.9424 86.4551 33.8486V33.1631C86.4551 33.0518 86.502 32.9961 86.5957 32.9961L88.5293 33.0312C88.6465 32.5977 88.8193 31.8594 89.0479 30.8164H88.3623L86.042 30.8516C85.9482 30.8516 85.9014 30.8047 85.9014 30.7109V29.9902C85.9014 29.8965 85.9482 29.8496 86.042 29.8496L88.3623 29.8848H92.2383L94.5586 29.8496C94.6523 29.8496 94.6992 29.8965 94.6992 29.9902V30.7109C94.6992 30.8047 94.6523 30.8516 94.5586 30.8516L92.2383 30.8164H90.1113C90.0059 31.373 89.8359 32.1113 89.6016 33.0312H90.9902L92.9766 32.9961C93.0703 32.9961 93.1172 33.0518 93.1172 33.1631L93.082 34.499V36.7139L95.0068 36.6787C95.1064 36.6787 95.1562 36.7256 95.1562 36.8193V37.54ZM92.0361 36.7139V33.9541H89.3555C89.0508 35.0029 88.7637 35.9229 88.4941 36.7139H92.0361ZM93.7852 45.0811C93.7852 45.1748 93.7383 45.2217 93.6445 45.2217H92.8096C92.7158 45.2217 92.6689 45.1748 92.6689 45.0811V44.3428H87.668V45.1338C87.668 45.2334 87.6211 45.2832 87.5273 45.2832H86.71C86.6162 45.2832 86.5693 45.2334 86.5693 45.1338L86.6045 42.3301V41.1611L86.5693 39.4648C86.5693 39.3711 86.6162 39.3242 86.71 39.3242L88.8193 39.3594H91.5527L93.6445 39.3242C93.7383 39.3242 93.7852 39.3711 93.7852 39.4648L93.75 40.959V42.3125L93.7852 45.0811ZM92.6689 43.4111V40.2734H87.668V43.4111H92.6689ZM84.8818 44.8174C84.8818 44.9111 84.832 44.958 84.7324 44.958H83.9941C83.9004 44.958 83.8535 44.9111 83.8535 44.8174V44.2373H80.9355V45.1338C80.9355 45.2334 80.8887 45.2832 80.7949 45.2832H80.0566C79.957 45.2832 79.9072 45.2334 79.9072 45.1338L79.9424 42.4971V41.3896L79.9072 39.8252C79.9072 39.7314 79.9541 39.6846 80.0479 39.6846L81.6387 39.7197H83.1328L84.7412 39.6846C84.835 39.6846 84.8818 39.7314 84.8818 39.8252L84.8467 41.0996V42.2773L84.8818 44.8174ZM83.8535 43.3584V40.5986H80.9355V43.3584H83.8535ZM85.3828 33.2598C85.3828 33.3652 85.333 33.418 85.2334 33.418L83.3438 33.3828H81.1289L79.2393 33.418C79.1455 33.418 79.0986 33.3652 79.0986 33.2598V32.5127C79.0986 32.4189 79.1455 32.3721 79.2393 32.3721L81.1289 32.4072H83.3438L85.2334 32.3721C85.333 32.3721 85.3828 32.4189 85.3828 32.5127V33.2598ZM84.9521 30.7725C84.9521 30.8662 84.9023 30.9131 84.8027 30.9131L83.2207 30.8779H81.6738L80.0918 30.9131C79.9922 30.9131 79.9424 30.8662 79.9424 30.7725V30.0518C79.9424 29.9521 79.9922 29.9023 80.0918 29.9023L81.6738 29.9463H83.2207L84.8027 29.9023C84.9023 29.9023 84.9521 29.9521 84.9521 30.0518V30.7725ZM84.6973 38.0938C84.6973 38.1934 84.6416 38.2432 84.5303 38.2432L83.0625 38.208H81.709L80.2148 38.2432C80.1211 38.2432 80.0742 38.1934 80.0742 38.0938V37.3906C80.0742 37.2969 80.1211 37.25 80.2148 37.25L81.709 37.2852H83.0625L84.5303 37.25C84.6416 37.25 84.6973 37.2969 84.6973 37.3906V38.0938ZM84.6973 35.7031C84.6973 35.7969 84.6416 35.8438 84.5303 35.8438L83.0625 35.8086H81.709L80.2148 35.8438C80.1211 35.8438 80.0742 35.7969 80.0742 35.7031V35C80.0742 34.9062 80.1211 34.8594 80.2148 34.8594L81.709 34.8945H83.0625L84.5303 34.8594C84.6416 34.8594 84.6973 34.9062 84.6973 35V35.7031ZM103.866 29.5068C104.399 29.6006 104.848 29.7324 105.211 29.9023C105.305 29.9492 105.352 30.0166 105.352 30.1045C105.352 30.1748 105.316 30.2393 105.246 30.2979C105.141 30.4092 105.032 30.5791 104.921 30.8076C104.786 31.0947 104.584 31.5488 104.314 32.1699C105.639 32.041 106.904 31.8418 108.111 31.5723C108.17 31.5605 108.211 31.5547 108.234 31.5547C108.275 31.5547 108.308 31.5869 108.331 31.6514C108.401 32.1377 108.437 32.4014 108.437 32.4424C108.437 32.5596 108.357 32.6328 108.199 32.6621C106.863 32.8965 105.401 33.0928 103.813 33.251C103.21 34.3291 102.598 35.2227 101.977 35.9316L101.994 35.9756C102.715 35.4541 103.465 35.1934 104.244 35.1934C105.609 35.1934 106.365 35.8965 106.512 37.3027C107.625 36.8047 108.56 36.374 109.315 36.0107C109.896 35.7295 110.353 35.4219 110.687 35.0879C111.108 35.457 111.401 35.8057 111.565 36.1338C111.606 36.21 111.627 36.2744 111.627 36.3271C111.627 36.4443 111.548 36.5176 111.39 36.5469C111.097 36.5938 110.766 36.6904 110.396 36.8369C109.963 37.0186 109.28 37.2939 108.349 37.6631C107.61 37.9561 107.021 38.1963 106.582 38.3838V41.4072C106.582 41.5361 106.518 41.6094 106.389 41.627C106.148 41.6738 105.888 41.6973 105.606 41.6973C105.501 41.6973 105.448 41.624 105.448 41.4775C105.448 40.3643 105.454 39.5 105.466 38.8848C103.497 39.8691 102.513 40.8652 102.513 41.873C102.513 42.4297 102.8 42.8281 103.374 43.0684C103.866 43.2676 104.604 43.3672 105.589 43.3672C106.69 43.3672 108.12 43.25 109.878 43.0156C109.901 43.0098 109.919 43.0068 109.931 43.0068C110.001 43.0068 110.051 43.0508 110.08 43.1387C110.15 43.4961 110.186 43.7891 110.186 44.0176C110.186 44.1582 110.139 44.2402 110.045 44.2637C108.721 44.4336 107.235 44.5186 105.589 44.5186C102.817 44.5186 101.432 43.6602 101.432 41.9434C101.432 41.1113 101.766 40.3613 102.434 39.6934C103.055 39.0664 104.048 38.4189 105.413 37.751C105.396 37.0947 105.255 36.6377 104.991 36.3799C104.757 36.1572 104.394 36.0488 103.901 36.0547C103.04 36.0723 102.056 36.5586 100.948 37.5137C100.591 37.8535 100.02 38.4395 99.2344 39.2715C99.1816 39.3359 99.1318 39.3682 99.085 39.3682C99.0498 39.3682 99.0117 39.3477 98.9707 39.3066C98.7363 39.0957 98.5254 38.8613 98.3379 38.6035C98.3086 38.5449 98.2939 38.5039 98.2939 38.4805C98.2939 38.4453 98.3203 38.4014 98.373 38.3486C100.125 36.8252 101.517 35.1582 102.548 33.3477C101.927 33.3828 101.276 33.4004 100.597 33.4004C100.163 33.4004 99.6973 33.3916 99.1992 33.374C99.0879 33.374 99.0234 33.3154 99.0059 33.1982C98.9473 32.8701 98.9121 32.5713 98.9004 32.3018C99.5273 32.3311 100.166 32.3457 100.816 32.3457C101.566 32.3457 102.319 32.3252 103.075 32.2842C103.403 31.458 103.617 30.8574 103.717 30.4824C103.816 30.1484 103.866 29.8643 103.866 29.6299C103.866 29.6064 103.866 29.5654 103.866 29.5068ZM130.743 40.2383C130.743 40.3438 130.696 40.3965 130.603 40.3965L128.08 40.3613H122.209L119.695 40.3965C119.596 40.3965 119.546 40.3438 119.546 40.2383V39.623C119.546 39.5293 119.596 39.4824 119.695 39.4824L122.209 39.5176H122.684V37.8916L120.319 37.9268C120.226 37.9268 120.179 37.874 120.179 37.7686V37.1533C120.179 37.0596 120.226 37.0127 120.319 37.0127L122.684 37.0479V36.9424C122.684 36.4326 122.646 36.0107 122.569 35.6768C122.921 35.6943 123.27 35.7324 123.615 35.791C123.762 35.8086 123.835 35.8555 123.835 35.9316C123.835 36.0195 123.806 36.1104 123.747 36.2041C123.683 36.2979 123.65 36.4941 123.65 36.793V37.0479H126.349V36.9775C126.349 36.415 126.313 35.9814 126.243 35.6768C126.782 35.7236 127.137 35.7617 127.307 35.791C127.465 35.8086 127.544 35.8613 127.544 35.9492C127.544 36.0078 127.506 36.0986 127.43 36.2217C127.371 36.3271 127.342 36.5 127.342 36.7402V37.0479H127.412L129.847 37.0127C129.94 37.0127 129.987 37.0596 129.987 37.1533V37.7686C129.987 37.874 129.94 37.9268 129.847 37.9268L127.412 37.8916H127.342V39.5176H128.08L130.603 39.4824C130.696 39.4824 130.743 39.5293 130.743 39.623V40.2383ZM126.349 39.5176V37.8916H123.65V39.5176H126.349ZM131.464 43.499C131.312 43.6748 131.203 43.9268 131.139 44.2549C131.109 44.4365 131.074 44.5449 131.033 44.5801C130.998 44.6094 130.896 44.6299 130.726 44.6416C128.388 44.7881 126.258 44.8613 124.336 44.8613C122.186 44.8613 120.709 44.668 119.906 44.2812C119.162 43.9414 118.585 43.3496 118.175 42.5059C117.741 42.9746 117.111 43.5576 116.285 44.2549C116.068 44.4307 115.942 44.5566 115.907 44.6328C115.837 44.7383 115.767 44.791 115.696 44.791C115.62 44.791 115.547 44.7383 115.477 44.6328C115.271 44.3164 115.099 44.0029 114.958 43.6924C115.392 43.4756 115.758 43.2529 116.057 43.0244C116.695 42.5381 117.234 42.0547 117.674 41.5742V37.1094H116.382L115.151 37.1445C115.058 37.1445 115.011 37.0889 115.011 36.9775V36.2041C115.011 36.1104 115.058 36.0635 115.151 36.0635L116.382 36.0986H117.296L118.597 36.0635C118.69 36.0635 118.737 36.1104 118.737 36.2041L118.702 37.9004V41.6445C118.983 42.459 119.522 43.0508 120.319 43.4199C121.028 43.707 122.229 43.8506 123.923 43.8506C126.419 43.8506 128.933 43.7334 131.464 43.499ZM130.655 34.0684C130.579 34.4785 130.441 34.7656 130.242 34.9297C129.99 35.1348 129.234 35.2373 127.975 35.2373C126.832 35.2373 126.152 35.1465 125.936 34.9648C125.789 34.8359 125.692 34.6924 125.646 34.5342C125.587 34.3525 125.558 34.0713 125.558 33.6904V32.8027L125.522 32.0996C125.522 32.0059 125.569 31.959 125.663 31.959L126.981 31.9941H129.144V30.6758H127.052L125.54 30.7109C125.435 30.7109 125.382 30.6641 125.382 30.5703V29.9463C125.382 29.8467 125.435 29.7969 125.54 29.7969L127.052 29.832H128.581L130.014 29.7969C130.107 29.7969 130.154 29.8438 130.154 29.9375L130.11 30.9834V31.5986L130.154 32.6973C130.154 32.791 130.107 32.8379 130.014 32.8379L128.581 32.8027H126.551V33.4883C126.551 33.916 126.604 34.1768 126.709 34.2705C126.82 34.3643 127.312 34.4111 128.186 34.4111C128.965 34.4111 129.422 34.3496 129.557 34.2266C129.674 34.1152 129.738 33.7959 129.75 33.2686C129.955 33.4209 130.178 33.5352 130.418 33.6113C130.594 33.6816 130.682 33.7607 130.682 33.8486C130.682 33.8838 130.673 33.957 130.655 34.0684ZM124.626 34.0684C124.55 34.4785 124.412 34.7656 124.213 34.9297C123.961 35.1348 123.252 35.2373 122.086 35.2373C120.967 35.2373 120.302 35.1465 120.091 34.9648C119.933 34.8418 119.827 34.6982 119.774 34.5342C119.722 34.3525 119.695 34.0713 119.695 33.6904V32.8027L119.66 32.0996C119.66 32.0059 119.713 31.959 119.818 31.959L121.093 31.9941H123.22V30.6758H121.172L119.634 30.7109C119.54 30.7109 119.493 30.6641 119.493 30.5703V29.9463C119.493 29.8467 119.54 29.7969 119.634 29.7969L121.172 29.832H122.666L124.09 29.7969C124.184 29.7969 124.23 29.8438 124.23 29.9375L124.195 30.9834V31.5986L124.23 32.6973C124.23 32.791 124.184 32.8379 124.09 32.8379L122.666 32.8027H120.68V33.4707C120.68 33.9102 120.735 34.1768 120.847 34.2705C120.958 34.3643 121.395 34.4111 122.156 34.4111C122.971 34.4111 123.445 34.3438 123.58 34.209C123.686 34.1094 123.744 33.7959 123.756 33.2686C123.967 33.4385 124.184 33.5586 124.406 33.6289C124.564 33.6875 124.644 33.7637 124.644 33.8574C124.644 33.8926 124.638 33.9629 124.626 34.0684ZM130.585 42.3477C130.427 42.5 130.295 42.6846 130.189 42.9014C130.084 43.0889 129.99 43.1826 129.908 43.1826C129.861 43.1826 129.773 43.1621 129.645 43.1211C128.367 42.6055 127.242 41.9756 126.27 41.2314C126.205 41.1904 126.173 41.1553 126.173 41.126C126.173 41.085 126.208 41.0293 126.278 40.959L126.604 40.6514C126.686 40.5693 126.747 40.5283 126.788 40.5283C126.817 40.5283 126.864 40.5518 126.929 40.5986C127.813 41.2842 129.032 41.8672 130.585 42.3477ZM118.649 32.3721C118.673 32.4131 118.685 32.4453 118.685 32.4688C118.685 32.5098 118.632 32.5742 118.526 32.6621L118.104 32.9873C117.987 33.0752 117.908 33.1191 117.867 33.1191C117.826 33.1191 117.785 33.0869 117.744 33.0225C117.053 31.8975 116.388 31.0332 115.749 30.4297C115.714 30.3945 115.696 30.3652 115.696 30.3418C115.696 30.3066 115.755 30.251 115.872 30.1748L116.276 29.8848C116.388 29.8145 116.458 29.7793 116.487 29.7793C116.517 29.7793 116.552 29.7969 116.593 29.832C117.349 30.5879 118.034 31.4346 118.649 32.3721ZM123.993 41.2314C123.976 41.3076 123.896 41.3662 123.756 41.4072C123.715 41.4189 123.63 41.4717 123.501 41.5654C123.372 41.6533 123.284 41.709 123.237 41.7324C122.569 42.1895 121.772 42.6025 120.847 42.9717C120.706 43.0244 120.612 43.0508 120.565 43.0508C120.495 43.0508 120.396 42.9717 120.267 42.8135C120.144 42.6318 119.982 42.4883 119.783 42.3828C120.715 42.0723 121.591 41.6768 122.411 41.1963C122.698 40.9971 122.938 40.7744 123.132 40.5283C123.284 40.6045 123.516 40.7598 123.826 40.9941C123.938 41.0703 123.993 41.1406 123.993 41.2051V41.2314ZM139.075 31.0361C139.327 30.6025 139.512 30.3096 139.629 30.1572C139.676 30.0986 139.731 30.0693 139.796 30.0693C139.819 30.0693 139.849 30.0752 139.884 30.0869C141.513 30.6787 142.734 31.3027 143.549 31.959C143.619 32 143.654 32.0557 143.654 32.126C143.654 32.1611 143.646 32.1992 143.628 32.2402C143.604 32.2988 143.449 32.5566 143.162 33.0137C143.104 33.0898 143.051 33.1279 143.004 33.1279C142.969 33.1279 142.919 33.1016 142.854 33.0488C141.829 32.2285 140.569 31.5576 139.075 31.0361ZM138.231 42.3564C139.14 42.7432 140.016 42.9365 140.859 42.9365C141.967 42.9365 142.521 42.4854 142.521 41.583C142.521 41.1963 142.374 40.8213 142.081 40.458C141.858 40.1885 141.422 39.7725 140.771 39.21C140.121 38.6533 139.673 38.167 139.427 37.751C139.239 37.4287 139.146 37.0947 139.146 36.749C139.146 35.917 139.518 35.1289 140.262 34.3848C140.578 34.5664 140.842 34.7715 141.053 35C141.082 35.0293 141.097 35.0615 141.097 35.0967C141.097 35.1318 141.076 35.1729 141.035 35.2197C140.531 35.6885 140.279 36.1777 140.279 36.6875C140.279 36.9512 140.402 37.2324 140.648 37.5312C140.883 37.8066 141.275 38.167 141.826 38.6123C142.588 39.2217 143.118 39.7783 143.417 40.2822C143.681 40.7275 143.812 41.2109 143.812 41.7324C143.812 42.4824 143.525 43.0801 142.951 43.5254C142.441 43.9238 141.797 44.123 141.018 44.123C140.174 44.123 139.412 44.0029 138.732 43.7627C138.604 43.7217 138.539 43.6426 138.539 43.5254C138.516 43.0684 138.413 42.6787 138.231 42.3564ZM137.186 40.1592C137.309 40.5811 137.44 40.8828 137.581 41.0645C137.628 41.1289 137.651 41.1875 137.651 41.2402C137.651 41.3398 137.622 41.4248 137.563 41.4951C137.218 41.9463 136.898 42.2891 136.605 42.5234C136.184 42.8574 135.759 43.0244 135.331 43.0244C134.323 43.0244 133.591 42.251 133.134 40.7041C133.122 40.6572 133.116 40.6221 133.116 40.5986C133.116 40.5576 133.134 40.5195 133.169 40.4844C133.327 40.3086 133.544 40.1211 133.819 39.9219C133.854 39.9043 133.884 39.8955 133.907 39.8955C133.96 39.8955 133.998 39.9307 134.021 40.001C134.402 41.167 134.833 41.75 135.313 41.75C135.583 41.75 135.841 41.6533 136.087 41.46C136.421 41.1611 136.787 40.7275 137.186 40.1592ZM144.999 38.0059C145.28 37.7656 145.526 37.5664 145.737 37.4082C145.802 37.373 145.852 37.3555 145.887 37.3555C145.916 37.3555 145.942 37.3672 145.966 37.3906C147.167 38.2637 148.104 39.4033 148.778 40.8096C148.802 40.8564 148.813 40.8975 148.813 40.9326C148.813 40.9971 148.778 41.0645 148.708 41.1348C148.479 41.3457 148.222 41.5332 147.935 41.6973C147.905 41.709 147.876 41.7148 147.847 41.7148C147.776 41.7148 147.721 41.6709 147.68 41.583C147.047 40.083 146.153 38.8906 144.999 38.0059ZM145.087 32.9082L145.755 32.4248C145.778 32.4072 145.802 32.3984 145.825 32.3984C145.86 32.3984 145.896 32.4131 145.931 32.4424C146.675 32.958 147.352 33.6846 147.961 34.6221C147.984 34.6514 147.996 34.6777 147.996 34.7012C147.996 34.7422 147.976 34.7803 147.935 34.8154L147.407 35.2461C147.372 35.2754 147.337 35.29 147.302 35.29C147.249 35.29 147.208 35.2637 147.179 35.2109C146.616 34.2676 145.919 33.5 145.087 32.9082ZM146.669 31.7041L147.249 31.2559C147.29 31.2207 147.328 31.2031 147.363 31.2031C147.387 31.2031 147.413 31.2148 147.442 31.2383C148.298 31.9004 148.983 32.6035 149.499 33.3477C149.517 33.377 149.525 33.4062 149.525 33.4355C149.525 33.4707 149.499 33.5117 149.446 33.5586L148.954 33.9893C148.925 34.0244 148.893 34.042 148.857 34.042C148.816 34.042 148.778 34.0127 148.743 33.9541C148.216 33.0928 147.524 32.3428 146.669 31.7041Z" fill="#282828"/>
<path d="M33.6035 62.6406C33.6035 62.6979 33.5731 62.7266 33.5122 62.7266L31.9546 62.7051H26.4009V63.124C26.4009 64.431 26.3382 65.516 26.2129 66.3789C26.1198 67.0342 25.9766 67.6089 25.7832 68.103C25.6149 68.5327 25.3804 68.9803 25.0796 69.4458C25.0259 69.5425 24.9847 69.5908 24.9561 69.5908C24.9417 69.5908 24.8988 69.555 24.8271 69.4834C24.6875 69.333 24.5479 69.222 24.4082 69.1504C25.0348 68.2946 25.4233 67.2902 25.5737 66.1372C25.6847 65.3602 25.7402 64.2054 25.7402 62.6729L25.7188 60.5083C25.7188 60.4438 25.7474 60.4116 25.8047 60.4116L27.3677 60.4331H31.9546L33.5122 60.4116C33.5731 60.4116 33.6035 60.4438 33.6035 60.5083L33.5767 61.2334V61.9155L33.6035 62.6406ZM32.9321 62.1357V61.0024H26.4009V62.1357H32.9321ZM34.4468 69.0859C34.3465 69.1862 34.2624 69.3205 34.1943 69.4888C34.1406 69.6248 34.0851 69.6929 34.0278 69.6929C34.0028 69.6929 33.9526 69.6839 33.8774 69.666C32.8211 69.3867 31.9528 68.966 31.2725 68.4038C30.6566 67.8953 30.1356 67.2275 29.7095 66.4004H28.5332V68.6992C29.4248 68.5238 30.0908 68.3734 30.5312 68.248C30.4954 68.3734 30.474 68.4951 30.4668 68.6133C30.4596 68.735 30.4435 68.8084 30.4185 68.8335C30.4006 68.855 30.3433 68.8765 30.2466 68.8979C29.1938 69.1593 28.1787 69.3742 27.2012 69.5425C27.0078 69.5819 26.8861 69.6195 26.8359 69.6553C26.7643 69.6982 26.716 69.7197 26.6909 69.7197C26.6408 69.7197 26.6014 69.6839 26.5728 69.6123C26.5083 69.4261 26.4492 69.2166 26.3955 68.9839C26.6999 68.9731 27.0042 68.9445 27.3086 68.8979L27.9048 68.812V66.4004C27.5288 66.404 27.1958 66.4093 26.9058 66.4165L26.6157 66.4219C26.5656 66.4219 26.5405 66.3932 26.5405 66.3359V65.8955C26.5405 65.8382 26.5656 65.8096 26.6157 65.8096L28.1465 65.8311H28.5332V64.5742L27.0562 64.5957C26.9989 64.5957 26.9702 64.5635 26.9702 64.499V64.0801C26.9702 64.0228 26.9989 63.9941 27.0562 63.9941L28.5332 64.0156V63.9512C28.5332 63.543 28.5099 63.2243 28.4634 62.9951C28.7104 63.0059 28.9235 63.0273 29.1025 63.0596C29.1992 63.0739 29.2476 63.1079 29.2476 63.1616C29.2476 63.1867 29.2297 63.2422 29.1938 63.3281C29.1509 63.4355 29.1294 63.6361 29.1294 63.9297V64.0156H31.0146V63.9404C31.0146 63.4857 30.9914 63.167 30.9448 62.9844C31.1704 62.9951 31.387 63.0166 31.5947 63.0488C31.6842 63.0632 31.729 63.0972 31.729 63.1509C31.729 63.1867 31.7111 63.2493 31.6753 63.3389C31.6395 63.4284 31.6216 63.6217 31.6216 63.9189V64.0156H31.772L33.249 63.9941C33.3063 63.9941 33.335 64.0228 33.335 64.0801V64.499C33.335 64.5635 33.3063 64.5957 33.249 64.5957L31.772 64.5742H31.6216V65.8311H32.5562L34.1191 65.8096C34.1764 65.8096 34.2051 65.8382 34.2051 65.8955V66.3359C34.2051 66.3932 34.1764 66.4219 34.1191 66.4219L32.5562 66.4004H30.354C30.6405 66.9124 30.986 67.3529 31.3906 67.7217C31.7201 67.4818 32.028 67.2132 32.3145 66.916C32.4326 66.7943 32.5311 66.6636 32.6099 66.5239C32.8104 66.6349 32.9715 66.7406 33.0933 66.8408C33.1613 66.8945 33.1953 66.9375 33.1953 66.9697C33.1953 67.0199 33.1577 67.0575 33.0825 67.0825C32.993 67.1183 32.8802 67.1989 32.7441 67.3242C32.4076 67.6214 32.0996 67.8703 31.8203 68.0708C32.4899 68.5542 33.3654 68.8926 34.4468 69.0859ZM31.0146 65.8311V64.5742H29.1294V65.8311H31.0146ZM45.2158 63.9297C45.2158 63.987 45.1854 64.0156 45.1245 64.0156L43.6636 63.9941H40.9028V67.0664L40.9243 68.4736C40.9243 68.8317 40.8294 69.0913 40.6396 69.2524C40.5179 69.3527 40.3335 69.4189 40.0864 69.4512C39.8716 69.4798 39.5386 69.4941 39.0874 69.4941C38.9728 69.4941 38.9048 69.4834 38.8833 69.4619C38.8618 69.4404 38.8385 69.3778 38.8135 69.2739C38.7598 69.0662 38.6828 68.8908 38.5825 68.7476C38.894 68.7834 39.2199 68.8013 39.5601 68.8013C39.8143 68.8013 39.9862 68.7565 40.0757 68.667C40.1509 68.5954 40.1885 68.4754 40.1885 68.3071V63.9941H37.374L35.9185 64.0156C35.8612 64.0156 35.8325 63.987 35.8325 63.9297V63.3979C35.8325 63.3407 35.8612 63.312 35.9185 63.312L37.374 63.3335H43.6636L45.1245 63.312C45.1854 63.312 45.2158 63.3407 45.2158 63.3979V63.9297ZM44.0396 61.3892C44.0396 61.4465 44.0109 61.4751 43.9536 61.4751L42.4014 61.4536H38.561L37.0088 61.4751C36.9515 61.4751 36.9229 61.4465 36.9229 61.3892V60.8574C36.9229 60.8001 36.9515 60.7715 37.0088 60.7715L38.561 60.793H42.4014L43.9536 60.7715C44.0109 60.7715 44.0396 60.8001 44.0396 60.8574V61.3892ZM38.4858 65.4336C38.4858 65.4801 38.45 65.5392 38.3784 65.6108C38.339 65.6502 38.2567 65.7935 38.1313 66.0405C37.716 66.9035 37.1234 67.6823 36.3535 68.377C36.264 68.4486 36.2085 68.4844 36.187 68.4844C36.1619 68.4844 36.1029 68.4432 36.0098 68.3608C35.8737 68.2391 35.7269 68.1442 35.5693 68.0762C35.9668 67.7861 36.3481 67.4209 36.7134 66.9805C36.9891 66.6475 37.2057 66.3306 37.3633 66.0298C37.5602 65.661 37.6694 65.3387 37.6909 65.063C37.938 65.131 38.1672 65.2116 38.3784 65.3047C38.45 65.3405 38.4858 65.3835 38.4858 65.4336ZM45.479 67.9097C45.3179 68.0207 45.1782 68.1496 45.0601 68.2964C44.9884 68.3931 44.9383 68.4414 44.9097 68.4414C44.8882 68.4414 44.8363 68.4002 44.7539 68.3179C43.8444 67.4334 43.1372 66.4541 42.6323 65.3799C42.6216 65.3584 42.6162 65.3405 42.6162 65.3262C42.6162 65.3011 42.661 65.2689 42.7505 65.2295L43.0405 65.106C43.0978 65.0773 43.1372 65.063 43.1587 65.063C43.1838 65.063 43.2052 65.0845 43.2231 65.1274C43.7782 66.2339 44.5301 67.1613 45.479 67.9097ZM51.0005 68.7153C51.0005 69.0591 50.9128 69.3044 50.7373 69.4512C50.5726 69.5765 50.2109 69.6392 49.6523 69.6392C49.5378 69.6392 49.4697 69.6284 49.4482 69.6069C49.4268 69.5854 49.4035 69.5228 49.3784 69.4189C49.3283 69.2363 49.262 69.0895 49.1797 68.9785C49.4232 69.0036 49.6577 69.0161 49.8833 69.0161C49.9549 69.0161 50.0247 69.0143 50.0928 69.0107C50.3184 69 50.4312 68.8604 50.4312 68.5918V66.6152H47.8691C47.776 67.7611 47.5218 68.7207 47.1064 69.4941C47.0635 69.5837 47.0277 69.6284 46.999 69.6284C46.9596 69.6284 46.9185 69.6034 46.8755 69.5532C46.7573 69.4351 46.6338 69.342 46.5049 69.2739C46.8486 68.6974 47.0832 68.0404 47.2085 67.3027C47.3088 66.7048 47.3589 65.9259 47.3589 64.9663V63.9619L47.3481 62.8608L46.9883 63.2798C46.9131 63.355 46.8683 63.3926 46.854 63.3926C46.8254 63.3926 46.7788 63.3478 46.7144 63.2583C46.632 63.1545 46.5407 63.0667 46.4404 62.9951C47.1351 62.3005 47.6704 61.4948 48.0464 60.5781C48.1574 60.2988 48.2236 60.0553 48.2451 59.8477C48.4707 59.9049 48.6676 59.9676 48.8359 60.0356C48.9183 60.0715 48.9595 60.1126 48.9595 60.1592C48.9595 60.2057 48.9308 60.2523 48.8735 60.2988C48.7983 60.3597 48.7088 60.5208 48.605 60.7822H49.7812C49.86 60.7822 49.9263 60.7715 49.98 60.75C50.0229 60.7285 50.0552 60.7178 50.0767 60.7178C50.1268 60.7178 50.2109 60.7679 50.3291 60.8682C50.4688 60.9792 50.5386 61.0633 50.5386 61.1206C50.5386 61.1672 50.5063 61.2191 50.4419 61.2764C50.3703 61.3372 50.3076 61.425 50.2539 61.5396C50.0534 61.9406 49.8564 62.2933 49.6631 62.5977H49.7812L50.9146 62.5762C50.9718 62.5762 51.0005 62.6048 51.0005 62.6621L50.979 63.9619V67.2651L51.0005 68.7153ZM49.7168 61.2871H48.3633C48.1234 61.749 47.8512 62.1823 47.5469 62.5869L48.562 62.5977H49.0508C49.3193 62.168 49.5413 61.7311 49.7168 61.2871ZM50.4312 66.0996V64.832H49.4429V66.0996H50.4312ZM48.9058 66.0996V64.832H47.9229V65.02C47.9229 65.2993 47.9157 65.6592 47.9014 66.0996H48.9058ZM50.4312 64.3164V63.1079H49.4429V64.3164H50.4312ZM48.9058 64.3164V63.1079H47.9229V64.3164H48.9058ZM56.4414 67.3618C56.4414 67.4263 56.4146 67.4585 56.3608 67.4585L54.9751 67.437H54.2393V68.2051L54.2607 69.6177C54.2607 69.675 54.2321 69.7036 54.1748 69.7036H53.6968C53.6395 69.7036 53.6108 69.675 53.6108 69.6177L53.6323 68.2051V67.437H52.8428L51.4517 67.4585C51.3944 67.4585 51.3657 67.4263 51.3657 67.3618V66.9321C51.3657 66.8713 51.3944 66.8408 51.4517 66.8408L52.8428 66.8677H53.6323V65.6001H52.3218C52.1714 65.8866 52.0353 66.1247 51.9136 66.3145C51.8527 66.4111 51.8062 66.4595 51.7739 66.4595C51.7345 66.4595 51.679 66.4344 51.6074 66.3843C51.5179 66.327 51.3979 66.2786 51.2476 66.2393C51.6021 65.7845 51.8831 65.2671 52.0908 64.687C52.1624 64.4757 52.2108 64.2716 52.2358 64.0747C52.4614 64.132 52.6369 64.1857 52.7622 64.2358C52.8517 64.2716 52.8965 64.3128 52.8965 64.3594C52.8965 64.388 52.875 64.4238 52.832 64.4668C52.7819 64.5169 52.7336 64.6136 52.687 64.7568L52.5742 65.0415H53.6323V64.5688C53.6323 64.2537 53.6108 63.9852 53.5679 63.7632C53.7541 63.7739 53.9779 63.7936 54.2393 63.8223C54.3109 63.833 54.3467 63.8617 54.3467 63.9082C54.3467 63.9261 54.3288 63.9816 54.293 64.0747C54.2572 64.1821 54.2393 64.3468 54.2393 64.5688V65.0415H54.6152L55.958 65.02C56.0153 65.02 56.0439 65.0487 56.0439 65.106V65.5356C56.0439 65.5929 56.0153 65.6216 55.958 65.6216L54.6152 65.6001H54.2393V66.8677H54.9751L56.3608 66.8408C56.4146 66.8408 56.4414 66.8713 56.4414 66.9321V67.3618ZM55.9795 60.6426C55.9688 60.7106 55.9616 60.7965 55.958 60.9004C55.9508 61.0365 55.9473 61.1134 55.9473 61.1313C55.9007 62.0015 55.813 62.6174 55.6841 62.979C55.5623 63.3084 55.2795 63.4731 54.8354 63.4731C54.5562 63.4731 54.3288 63.4624 54.1533 63.4409C54.0495 63.4302 53.9886 63.4141 53.9707 63.3926C53.9528 63.3747 53.9367 63.321 53.9224 63.2314C53.8866 63.056 53.8382 62.9056 53.7773 62.7803C54.071 62.8376 54.3538 62.8662 54.626 62.8662C54.9124 62.8662 55.0843 62.7713 55.1416 62.5815C55.2275 62.2593 55.283 61.7687 55.3081 61.1099H53.6807C53.6055 61.7651 53.4103 62.3022 53.0952 62.7212C52.8302 63.0721 52.431 63.4051 51.8975 63.7202C51.8187 63.7632 51.7668 63.7847 51.7417 63.7847C51.7166 63.7847 51.6647 63.7399 51.5859 63.6504C51.4857 63.5322 51.3693 63.4302 51.2368 63.3442C51.867 63.0506 52.3164 62.7212 52.585 62.356C52.8285 62.0337 52.9806 61.6183 53.0415 61.1099H52.8428L51.5645 61.1313C51.5072 61.1313 51.4785 61.1027 51.4785 61.0454V60.6265C51.4785 60.5692 51.5072 60.5405 51.5645 60.5405L52.8428 60.562H54.583L55.8828 60.5405C55.9473 60.5405 55.9795 60.5745 55.9795 60.6426ZM67.6401 68.1084C67.59 68.7458 67.4683 69.1504 67.2749 69.3223C67.0601 69.5264 66.6715 69.6284 66.1094 69.6284C65.5723 69.6284 65.2303 69.5729 65.0835 69.4619C64.8794 69.3187 64.7773 69.0286 64.7773 68.5918V65.3262H63.8105C63.7819 66.54 63.6064 67.48 63.2842 68.146C62.987 68.7655 62.509 69.2882 61.8501 69.7144C61.7785 69.7645 61.7248 69.7896 61.689 69.7896C61.6496 69.7896 61.6012 69.7466 61.5439 69.6606C61.4294 69.5103 61.304 69.3957 61.168 69.3169C61.9557 68.9087 62.4928 68.377 62.7793 67.7217C63.0264 67.1595 63.1606 66.361 63.1821 65.3262C62.8527 65.3298 62.5645 65.3351 62.3174 65.3423C62.3138 65.3423 62.2493 65.3441 62.124 65.3477C62.0918 65.3477 62.0703 65.3477 62.0596 65.3477C62.0023 65.3477 61.9736 65.319 61.9736 65.2617L61.9951 64.3325V63.1938L61.9736 62.2646C61.9736 62.2074 62.0023 62.1787 62.0596 62.1787L63.4131 62.2002H64.7344C64.9958 61.7061 65.2303 61.1636 65.438 60.5728C65.5132 60.3758 65.5615 60.1699 65.583 59.9551C65.7943 60.0052 66.0127 60.075 66.2383 60.1646C66.3135 60.1932 66.3511 60.2344 66.3511 60.2881C66.3511 60.3418 66.3135 60.3991 66.2383 60.46C66.181 60.5137 66.1201 60.6283 66.0557 60.8037C65.8695 61.2692 65.6493 61.7347 65.395 62.2002L66.7485 62.1787C66.8058 62.1787 66.8345 62.2074 66.8345 62.2646L66.813 63.1938V64.3325L66.8345 65.2617C66.8345 65.319 66.8058 65.3477 66.7485 65.3477L65.395 65.3262V68.4146C65.395 68.6795 65.4398 68.8424 65.5293 68.9033C65.626 68.9749 65.8301 69.0107 66.1416 69.0107C66.514 69.0107 66.7593 68.9409 66.8774 68.8013C66.9849 68.6759 67.0475 68.2767 67.0654 67.6035C67.1549 67.693 67.2874 67.77 67.4629 67.8345C67.5811 67.8846 67.6401 67.9437 67.6401 68.0117C67.6401 68.0225 67.6401 68.0386 67.6401 68.0601C67.6401 68.0815 67.6401 68.0977 67.6401 68.1084ZM66.1846 64.7515V62.7856H62.6235V64.7515H66.1846ZM61.0605 69.4189C61.0605 69.4762 61.0301 69.5049 60.9692 69.5049H60.5288C60.4715 69.5049 60.4429 69.4762 60.4429 69.4189V69.0537H58.8047V69.6929C58.8047 69.7502 58.776 69.7788 58.7188 69.7788H58.2783C58.2103 69.7788 58.1763 69.7502 58.1763 69.6929L58.1978 68.0869V67.4263L58.1763 66.4487C58.1763 66.3986 58.2085 66.3735 58.2729 66.3735L59.2129 66.395H60.0239L60.9746 66.3735C61.0319 66.3735 61.0605 66.3986 61.0605 66.4487L61.0391 67.2383V67.9795L61.0605 69.4189ZM60.4429 68.5166V66.9321H58.8047V68.5166H60.4429ZM61.3774 62.4473C61.3774 62.5046 61.3488 62.5332 61.2915 62.5332L60.1475 62.5117H58.9229L57.7788 62.5332C57.7287 62.5332 57.7036 62.5046 57.7036 62.4473V61.98C57.7036 61.9227 57.7287 61.894 57.7788 61.894L58.9229 61.9155H60.1475L61.2915 61.894C61.3488 61.894 61.3774 61.9227 61.3774 61.98V62.4473ZM61.1357 60.9487C61.1357 61.006 61.1071 61.0347 61.0498 61.0347L60.0884 61.0132H59.2344L58.2729 61.0347C58.2157 61.0347 58.187 61.006 58.187 60.9487V60.5083C58.187 60.451 58.2157 60.4224 58.2729 60.4224L59.2344 60.4438H60.0884L61.0498 60.4224C61.1071 60.4224 61.1357 60.451 61.1357 60.5083V60.9487ZM60.9692 65.3799C60.9692 65.4408 60.9406 65.4712 60.8833 65.4712L59.9917 65.4443H59.2559L58.3643 65.4712C58.3034 65.4712 58.2729 65.4408 58.2729 65.3799V64.9502C58.2729 64.8929 58.3034 64.8643 58.3643 64.8643L59.2559 64.8857H59.9917L60.8833 64.8643C60.9406 64.8643 60.9692 64.8929 60.9692 64.9502V65.3799ZM60.9692 63.9082C60.9692 63.9691 60.9406 63.9995 60.8833 63.9995L59.9917 63.9727H59.2559L58.3643 63.9995C58.3034 63.9995 58.2729 63.9691 58.2729 63.9082V63.4785C58.2729 63.4212 58.3034 63.3926 58.3643 63.3926L59.2559 63.4141H59.9917L60.8833 63.3926C60.9406 63.3926 60.9692 63.4212 60.9692 63.4785V63.9082ZM63.7515 61.5396C63.7586 61.5575 63.7622 61.5736 63.7622 61.5879C63.7622 61.6273 63.7264 61.6631 63.6548 61.6953L63.3379 61.8511C63.2878 61.8761 63.252 61.8887 63.2305 61.8887C63.2018 61.8887 63.1785 61.8654 63.1606 61.8188C63.0103 61.3569 62.7739 60.8879 62.4517 60.4116C62.4338 60.383 62.4248 60.3615 62.4248 60.3472C62.4248 60.3293 62.4606 60.3024 62.5322 60.2666L62.8491 60.1108C62.8957 60.0929 62.9279 60.084 62.9458 60.084C62.9709 60.084 62.9941 60.1001 63.0156 60.1323C63.3236 60.5656 63.5688 61.0347 63.7515 61.5396ZM73.9136 62.0605C73.8097 63.0488 73.6128 63.9959 73.3228 64.9019C73.0757 65.686 72.7892 66.3413 72.4634 66.8677C72.0194 67.6232 71.4805 68.001 70.8467 68.001C70.3776 68.001 69.9873 67.7557 69.6758 67.2651C69.3857 66.8032 69.2407 66.216 69.2407 65.5034C69.2407 64.9556 69.366 64.4167 69.6167 63.8867C69.8423 63.4141 70.1431 63.0023 70.519 62.6514C71.3892 61.8385 72.4884 61.4321 73.8169 61.4321C75.1167 61.4321 76.1229 61.8027 76.8354 62.5439C77.4406 63.1742 77.7432 63.9852 77.7432 64.9771C77.7432 65.9653 77.4191 66.7961 76.771 67.4692C76.173 68.0923 75.3315 68.5399 74.2466 68.812C74.2072 68.8228 74.175 68.8281 74.1499 68.8281C74.0747 68.8281 74.012 68.7834 73.9619 68.6938C73.8652 68.5363 73.722 68.4002 73.5322 68.2856C74.7103 68.0529 75.5929 67.616 76.1802 66.9751C76.703 66.4022 76.9644 65.6914 76.9644 64.8428C76.9644 63.9798 76.6528 63.2798 76.0298 62.7427C75.4998 62.2879 74.8643 62.0605 74.123 62.0605H73.9136ZM73.1455 62.1035C72.279 62.2145 71.5646 62.5511 71.0024 63.1133C70.297 63.8079 69.9443 64.6011 69.9443 65.4927C69.9443 66.0799 70.0553 66.5347 70.2773 66.8569C70.4421 67.0933 70.6283 67.2114 70.8359 67.2114C71.2119 67.2114 71.5521 66.9429 71.8564 66.4058C72.1823 65.8364 72.4652 65.1471 72.7051 64.3379C72.9342 63.5609 73.0811 62.8161 73.1455 62.1035ZM89.624 69C89.4665 69.1468 89.3465 69.29 89.2642 69.4297C89.1925 69.5407 89.1406 69.5962 89.1084 69.5962C89.0833 69.5962 89.0278 69.5783 88.9419 69.5425C86.7111 68.7082 85.2126 67.2293 84.4463 65.106H84.3335C84.0256 65.4533 83.6227 65.8203 83.125 66.207V68.6938C83.8877 68.5327 84.7489 68.2982 85.7085 67.9902C85.6799 68.0977 85.6655 68.2248 85.6655 68.3716C85.6584 68.4862 85.644 68.556 85.6226 68.5811C85.6011 68.6025 85.5384 68.6276 85.4346 68.6562C84.2852 69.0179 83.0086 69.3366 81.605 69.6123C81.3794 69.6445 81.229 69.6893 81.1538 69.7466C81.1073 69.7824 81.0643 69.8003 81.0249 69.8003C80.964 69.8003 80.9193 69.7681 80.8906 69.7036C80.819 69.5138 80.7528 69.3008 80.6919 69.0645C81.0715 69.0465 81.4832 69 81.9272 68.9248L82.4858 68.8228V66.6475C81.7554 67.1165 80.9676 67.505 80.1226 67.813C80.0402 67.8452 79.9883 67.8613 79.9668 67.8613C79.9274 67.8613 79.8755 67.8022 79.811 67.6841C79.7179 67.5373 79.6159 67.4191 79.5049 67.3296C80.307 67.1004 81.0876 66.7692 81.8467 66.3359C82.5342 65.9492 83.0892 65.5392 83.5117 65.106H81.1538L79.7251 65.1274C79.6678 65.1274 79.6392 65.0988 79.6392 65.0415V64.6011C79.6392 64.5438 79.6678 64.5151 79.7251 64.5151L81.1538 64.5366H84.0811V63.3872H82.5825L81.0464 63.4087C80.9784 63.4087 80.9443 63.38 80.9443 63.3228V62.8931C80.9443 62.8358 80.9784 62.8071 81.0464 62.8071L82.5825 62.8286H84.0811V61.7598H82.1206L80.5952 61.7812C80.5272 61.7812 80.4932 61.7526 80.4932 61.6953V61.2549C80.4932 61.1976 80.5272 61.1689 80.5952 61.1689L82.1206 61.1904H84.0811V60.9702C84.0811 60.4367 84.056 60.0625 84.0059 59.8477C84.2816 59.8584 84.5269 59.8799 84.7417 59.9121C84.8312 59.9229 84.876 59.9569 84.876 60.0142C84.876 60.0428 84.8545 60.109 84.8115 60.2129C84.765 60.2988 84.7417 60.5513 84.7417 60.9702V61.1904H86.8525L88.4048 61.1689C88.4621 61.1689 88.4907 61.1976 88.4907 61.2549V61.6953C88.4907 61.7526 88.4621 61.7812 88.4048 61.7812L86.8525 61.7598H84.7417V62.8286H86.4712L88.0181 62.8071C88.0789 62.8071 88.1094 62.8358 88.1094 62.8931V63.3228C88.1094 63.38 88.0789 63.4087 88.0181 63.4087L86.4712 63.3872H84.7417V64.5366H87.8462L89.2749 64.5151C89.3322 64.5151 89.3608 64.5438 89.3608 64.6011V65.0415C89.3608 65.0988 89.3322 65.1274 89.2749 65.1274L87.8462 65.106H85.0962C85.354 65.7684 85.7228 66.3735 86.2026 66.9214C86.6753 66.5633 87.0871 66.2035 87.438 65.8418C87.5454 65.7344 87.6439 65.5911 87.7334 65.4121C87.984 65.5768 88.1649 65.7057 88.2759 65.7988C88.3332 65.8418 88.3618 65.883 88.3618 65.9224C88.3618 65.9761 88.3171 66.019 88.2275 66.0513C88.1201 66.0871 88.0002 66.1676 87.8677 66.293C87.4989 66.6331 87.0728 66.9787 86.5894 67.3296C87.4093 68.1245 88.4209 68.6813 89.624 69ZM100.216 63.9297C100.216 63.987 100.185 64.0156 100.125 64.0156L98.6636 63.9941H95.9028V67.0664L95.9243 68.4736C95.9243 68.8317 95.8294 69.0913 95.6396 69.2524C95.5179 69.3527 95.3335 69.4189 95.0864 69.4512C94.8716 69.4798 94.5386 69.4941 94.0874 69.4941C93.9728 69.4941 93.9048 69.4834 93.8833 69.4619C93.8618 69.4404 93.8385 69.3778 93.8135 69.2739C93.7598 69.0662 93.6828 68.8908 93.5825 68.7476C93.894 68.7834 94.2199 68.8013 94.5601 68.8013C94.8143 68.8013 94.9862 68.7565 95.0757 68.667C95.1509 68.5954 95.1885 68.4754 95.1885 68.3071V63.9941H92.374L90.9185 64.0156C90.8612 64.0156 90.8325 63.987 90.8325 63.9297V63.3979C90.8325 63.3407 90.8612 63.312 90.9185 63.312L92.374 63.3335H98.6636L100.125 63.312C100.185 63.312 100.216 63.3407 100.216 63.3979V63.9297ZM99.0396 61.3892C99.0396 61.4465 99.0109 61.4751 98.9536 61.4751L97.4014 61.4536H93.561L92.0088 61.4751C91.9515 61.4751 91.9229 61.4465 91.9229 61.3892V60.8574C91.9229 60.8001 91.9515 60.7715 92.0088 60.7715L93.561 60.793H97.4014L98.9536 60.7715C99.0109 60.7715 99.0396 60.8001 99.0396 60.8574V61.3892ZM93.4858 65.4336C93.4858 65.4801 93.45 65.5392 93.3784 65.6108C93.339 65.6502 93.2567 65.7935 93.1313 66.0405C92.716 66.9035 92.1234 67.6823 91.3535 68.377C91.264 68.4486 91.2085 68.4844 91.187 68.4844C91.1619 68.4844 91.1029 68.4432 91.0098 68.3608C90.8737 68.2391 90.7269 68.1442 90.5693 68.0762C90.9668 67.7861 91.3481 67.4209 91.7134 66.9805C91.9891 66.6475 92.2057 66.3306 92.3633 66.0298C92.5602 65.661 92.6694 65.3387 92.6909 65.063C92.938 65.131 93.1672 65.2116 93.3784 65.3047C93.45 65.3405 93.4858 65.3835 93.4858 65.4336ZM100.479 67.9097C100.318 68.0207 100.178 68.1496 100.06 68.2964C99.9884 68.3931 99.9383 68.4414 99.9097 68.4414C99.8882 68.4414 99.8363 68.4002 99.7539 68.3179C98.8444 67.4334 98.1372 66.4541 97.6323 65.3799C97.6216 65.3584 97.6162 65.3405 97.6162 65.3262C97.6162 65.3011 97.661 65.2689 97.7505 65.2295L98.0405 65.106C98.0978 65.0773 98.1372 65.063 98.1587 65.063C98.1838 65.063 98.2052 65.0845 98.2231 65.1274C98.7782 66.2339 99.5301 67.1613 100.479 67.9097ZM109.787 69.6284C109.787 69.6857 109.758 69.7144 109.701 69.7144H109.191C109.134 69.7144 109.105 69.6857 109.105 69.6284V69.2095H103.9V69.6714C103.9 69.7287 103.868 69.7573 103.804 69.7573H103.304C103.247 69.7573 103.218 69.7287 103.218 69.6714L103.24 68.1084V67.5015L103.218 66.6099C103.218 66.5454 103.247 66.5132 103.304 66.5132L104.846 66.5347H108.17L109.701 66.5132C109.758 66.5132 109.787 66.5454 109.787 66.6099L109.766 67.3833V68.0869L109.787 69.6284ZM109.105 68.624V67.1201H103.9V68.624H109.105ZM111.286 62.4688C111.286 62.526 111.255 62.5547 111.194 62.5547L109.755 62.5332H103.277L101.833 62.5547C101.775 62.5547 101.747 62.526 101.747 62.4688V61.98C101.747 61.9227 101.775 61.894 101.833 61.894L103.277 61.9155H109.755L111.194 61.894C111.255 61.894 111.286 61.9227 111.286 61.98V62.4688ZM109.852 60.9272C109.852 60.9845 109.823 61.0132 109.766 61.0132L108.235 60.9917H104.781L103.256 61.0132C103.195 61.0132 103.165 60.9845 103.165 60.9272V60.4707C103.165 60.4062 103.195 60.374 103.256 60.374L104.781 60.3955H108.235L109.766 60.374C109.823 60.374 109.852 60.4062 109.852 60.4707V60.9272ZM109.621 63.9995C109.621 64.0568 109.592 64.0854 109.535 64.0854L108.036 64.064H104.98L103.487 64.0854C103.426 64.0854 103.396 64.0568 103.396 63.9995V63.5322C103.396 63.4749 103.426 63.4463 103.487 63.4463L104.98 63.4678H108.036L109.535 63.4463C109.592 63.4463 109.621 63.4749 109.621 63.5322V63.9995ZM109.621 65.5142C109.621 65.5715 109.592 65.6001 109.535 65.6001L108.036 65.5786H104.98L103.487 65.6001C103.426 65.6001 103.396 65.5715 103.396 65.5142V65.0469C103.396 64.9896 103.426 64.9609 103.487 64.9609L104.98 64.9824H108.036L109.535 64.9609C109.592 64.9609 109.621 64.9896 109.621 65.0469V65.5142ZM122.484 65.0522C122.484 65.1095 122.454 65.1382 122.393 65.1382L120.911 65.1167H118.037L116.549 65.1382C116.492 65.1382 116.463 65.1095 116.463 65.0522V64.6118C116.463 64.5545 116.492 64.5259 116.549 64.5259L117.731 64.5474C117.928 64.0138 118.111 63.4517 118.279 62.8608C117.978 62.8644 117.713 62.8698 117.484 62.877C117.466 62.877 117.409 62.8787 117.312 62.8823C117.28 62.8823 117.26 62.8823 117.253 62.8823C117.196 62.8823 117.167 62.8537 117.167 62.7964V62.3774C117.167 62.3094 117.196 62.2754 117.253 62.2754L118.435 62.2969C118.506 62.0319 118.612 61.5807 118.751 60.9434H118.333L116.915 60.9648C116.857 60.9648 116.829 60.9362 116.829 60.8789V60.4385C116.829 60.3812 116.857 60.3525 116.915 60.3525L118.333 60.374H120.701L122.119 60.3525C122.176 60.3525 122.205 60.3812 122.205 60.4385V60.8789C122.205 60.9362 122.176 60.9648 122.119 60.9648L120.701 60.9434H119.401C119.337 61.2835 119.233 61.7347 119.09 62.2969H119.938L121.152 62.2754C121.21 62.2754 121.238 62.3094 121.238 62.3774L121.217 63.1938V64.5474L122.393 64.5259C122.454 64.5259 122.484 64.5545 122.484 64.6118V65.0522ZM120.578 64.5474V62.8608H118.939C118.753 63.5018 118.578 64.064 118.413 64.5474H120.578ZM121.646 69.6606C121.646 69.7179 121.618 69.7466 121.561 69.7466H121.05C120.993 69.7466 120.964 69.7179 120.964 69.6606V69.2095H117.908V69.6929C117.908 69.7537 117.88 69.7842 117.822 69.7842H117.323C117.265 69.7842 117.237 69.7537 117.237 69.6929L117.258 67.9795V67.2651L117.237 66.2285C117.237 66.1712 117.265 66.1426 117.323 66.1426L118.612 66.1641H120.282L121.561 66.1426C121.618 66.1426 121.646 66.1712 121.646 66.2285L121.625 67.1416V67.9688L121.646 69.6606ZM120.964 68.6401V66.7227H117.908V68.6401H120.964ZM116.206 69.4995C116.206 69.5568 116.175 69.5854 116.114 69.5854H115.663C115.606 69.5854 115.577 69.5568 115.577 69.4995V69.145H113.794V69.6929C113.794 69.7537 113.765 69.7842 113.708 69.7842H113.257C113.196 69.7842 113.166 69.7537 113.166 69.6929L113.187 68.0815V67.4048L113.166 66.4487C113.166 66.3914 113.194 66.3628 113.251 66.3628L114.224 66.3843H115.137L116.12 66.3628C116.177 66.3628 116.206 66.3914 116.206 66.4487L116.184 67.2275V67.9473L116.206 69.4995ZM115.577 68.6079V66.9214H113.794V68.6079H115.577ZM116.512 62.4365C116.512 62.501 116.481 62.5332 116.42 62.5332L115.266 62.5117H113.912L112.757 62.5332C112.7 62.5332 112.671 62.501 112.671 62.4365V61.98C112.671 61.9227 112.7 61.894 112.757 61.894L113.912 61.9155H115.266L116.42 61.894C116.481 61.894 116.512 61.9227 116.512 61.98V62.4365ZM116.249 60.9165C116.249 60.9738 116.218 61.0024 116.157 61.0024L115.19 60.981H114.245L113.278 61.0024C113.217 61.0024 113.187 60.9738 113.187 60.9165V60.4761C113.187 60.4152 113.217 60.3848 113.278 60.3848L114.245 60.4116H115.19L116.157 60.3848C116.218 60.3848 116.249 60.4152 116.249 60.4761V60.9165ZM116.093 65.3906C116.093 65.4515 116.059 65.4819 115.991 65.4819L115.094 65.4604H114.267L113.354 65.4819C113.296 65.4819 113.268 65.4515 113.268 65.3906V64.9609C113.268 64.9036 113.296 64.875 113.354 64.875L114.267 64.8965H115.094L115.991 64.875C116.059 64.875 116.093 64.9036 116.093 64.9609V65.3906ZM116.093 63.9297C116.093 63.987 116.059 64.0156 115.991 64.0156L115.094 63.9941H114.267L113.354 64.0156C113.296 64.0156 113.268 63.987 113.268 63.9297V63.5C113.268 63.4427 113.296 63.4141 113.354 63.4141L114.267 63.4355H115.094L115.991 63.4141C116.059 63.4141 116.093 63.4427 116.093 63.5V63.9297ZM127.807 60.1431C128.133 60.2004 128.407 60.2809 128.629 60.3848C128.686 60.4134 128.715 60.4546 128.715 60.5083C128.715 60.5513 128.693 60.5907 128.65 60.6265C128.586 60.6945 128.52 60.7983 128.452 60.938C128.369 61.1134 128.246 61.391 128.081 61.7705C128.89 61.6917 129.664 61.57 130.401 61.4053C130.437 61.3981 130.462 61.3945 130.477 61.3945C130.502 61.3945 130.521 61.4142 130.536 61.4536C130.579 61.7508 130.6 61.9119 130.6 61.937C130.6 62.0086 130.552 62.0534 130.455 62.0713C129.639 62.2145 128.745 62.3345 127.775 62.4312C127.406 63.09 127.032 63.6361 126.652 64.0693L126.663 64.0962C127.104 63.7775 127.562 63.6182 128.038 63.6182C128.872 63.6182 129.334 64.0479 129.424 64.9072C130.104 64.6029 130.675 64.3397 131.137 64.1177C131.492 63.9458 131.771 63.7578 131.975 63.5537C132.233 63.7793 132.412 63.9924 132.512 64.1929C132.537 64.2394 132.55 64.2788 132.55 64.311C132.55 64.3826 132.501 64.4274 132.405 64.4453C132.226 64.474 132.023 64.533 131.798 64.6226C131.533 64.7336 131.116 64.9019 130.546 65.1274C130.095 65.3065 129.735 65.4533 129.467 65.5679V67.4155C129.467 67.4943 129.427 67.5391 129.349 67.5498C129.202 67.5785 129.042 67.5928 128.871 67.5928C128.806 67.5928 128.774 67.548 128.774 67.4585C128.774 66.7782 128.778 66.25 128.785 65.874C127.582 66.4756 126.98 67.0843 126.98 67.7002C126.98 68.0404 127.155 68.2839 127.506 68.4307C127.807 68.5524 128.258 68.6133 128.86 68.6133C129.533 68.6133 130.407 68.5417 131.481 68.3984C131.495 68.3949 131.506 68.3931 131.513 68.3931C131.556 68.3931 131.587 68.4199 131.604 68.4736C131.647 68.6921 131.669 68.8711 131.669 69.0107C131.669 69.0967 131.64 69.1468 131.583 69.1611C130.774 69.265 129.866 69.3169 128.86 69.3169C127.166 69.3169 126.319 68.7923 126.319 67.7432C126.319 67.2347 126.523 66.7764 126.932 66.3682C127.311 65.985 127.918 65.5894 128.752 65.1812C128.742 64.7801 128.656 64.5008 128.495 64.3433C128.351 64.2072 128.129 64.141 127.829 64.1445C127.302 64.1553 126.701 64.4525 126.024 65.0361C125.806 65.2438 125.456 65.6019 124.977 66.1104C124.944 66.1497 124.914 66.1694 124.885 66.1694C124.864 66.1694 124.84 66.1569 124.815 66.1318C124.672 66.0029 124.543 65.8597 124.429 65.7021C124.411 65.6663 124.402 65.6413 124.402 65.627C124.402 65.6055 124.418 65.5786 124.45 65.5464C125.521 64.6154 126.371 63.5967 127.001 62.4902C126.622 62.5117 126.224 62.5225 125.809 62.5225C125.544 62.5225 125.259 62.5171 124.955 62.5063C124.887 62.5063 124.848 62.4705 124.837 62.3989C124.801 62.1984 124.78 62.0158 124.772 61.8511C125.156 61.869 125.546 61.8779 125.943 61.8779C126.402 61.8779 126.862 61.8654 127.324 61.8403C127.524 61.3354 127.655 60.9684 127.716 60.7393C127.777 60.5352 127.807 60.3615 127.807 60.2183C127.807 60.2039 127.807 60.1789 127.807 60.1431ZM144.065 60.9702C144.051 61.1922 144.044 61.5127 144.044 61.9316C144.033 64.3665 143.901 66.3288 143.646 67.8184C143.539 68.4557 143.347 68.8997 143.072 69.1504C142.85 69.3545 142.54 69.4565 142.143 69.4565C141.863 69.4565 141.562 69.4386 141.24 69.4028C141.136 69.3885 141.076 69.3706 141.058 69.3491C141.04 69.3312 141.024 69.2721 141.009 69.1719C140.977 68.9642 140.925 68.7905 140.854 68.6509C141.355 68.7332 141.765 68.7744 142.083 68.7744C142.352 68.7744 142.556 68.6759 142.696 68.479C142.814 68.3035 142.907 68.0207 142.975 67.6304C143.222 66.0441 143.351 64.0085 143.362 61.5234H141.203C141.192 63.5752 140.984 65.14 140.58 66.2178C140.032 67.6465 138.975 68.7511 137.411 69.5317C137.321 69.5747 137.258 69.5962 137.223 69.5962C137.187 69.5962 137.131 69.5604 137.056 69.4888C136.92 69.3384 136.77 69.2202 136.605 69.1343C138.309 68.436 139.428 67.3887 139.962 65.9922C140.198 65.3584 140.358 64.6172 140.44 63.7686C140.497 63.1992 140.529 62.4508 140.537 61.5234H140.161L138.743 61.5449C138.682 61.5449 138.651 61.5163 138.651 61.459V60.9595C138.651 60.9093 138.682 60.8843 138.743 60.8843L140.161 60.9058H142.545L143.969 60.8843C144.033 60.8843 144.065 60.9129 144.065 60.9702ZM138.984 62.9414C138.984 62.9629 138.984 62.9754 138.984 62.979C138.984 63.0184 138.958 63.0417 138.904 63.0488C138.693 63.0775 138.265 63.1616 137.62 63.3013L136.508 63.543V66.1641C136.508 66.404 136.557 66.5579 136.653 66.626C136.739 66.6833 136.933 66.7119 137.233 66.7119C137.57 66.7119 137.808 66.66 137.948 66.5562C138.073 66.4666 138.159 66.2983 138.206 66.0513C138.245 65.8472 138.27 65.5249 138.281 65.0845C138.406 65.1812 138.549 65.2653 138.71 65.3369C138.796 65.3763 138.847 65.4049 138.861 65.4229C138.879 65.4408 138.888 65.473 138.888 65.5195C138.888 65.5374 138.886 65.5679 138.882 65.6108C138.85 66.0942 138.786 66.4469 138.689 66.6689C138.614 66.8372 138.499 66.9733 138.345 67.0771C138.112 67.2454 137.717 67.3296 137.158 67.3296C136.693 67.3296 136.374 67.2812 136.202 67.1846C135.966 67.0628 135.848 66.7925 135.848 66.3735V63.6772C135.465 63.756 135.132 63.8294 134.849 63.8975C134.666 63.9404 134.569 63.9619 134.559 63.9619C134.541 63.9655 134.528 63.9673 134.521 63.9673C134.489 63.9673 134.469 63.9404 134.462 63.8867L134.387 63.3926C134.383 63.3711 134.381 63.355 134.381 63.3442C134.381 63.3156 134.408 63.2977 134.462 63.2905C134.695 63.2655 135.121 63.1885 135.74 63.0596L135.848 63.0381V61.8081C135.848 60.9738 135.826 60.4385 135.783 60.2021C136.037 60.2093 136.272 60.2308 136.487 60.2666C136.591 60.2881 136.643 60.3203 136.643 60.3633C136.643 60.417 136.621 60.4868 136.578 60.5728C136.532 60.6838 136.508 61.0991 136.508 61.8188V62.9038L137.566 62.6729C137.95 62.5905 138.275 62.5153 138.544 62.4473L138.818 62.3774C138.839 62.3739 138.854 62.3721 138.861 62.3721C138.886 62.3721 138.9 62.3953 138.904 62.4419L138.984 62.9414ZM148.335 60.2773C148.64 60.3418 148.896 60.4295 149.104 60.5405C149.2 60.5942 149.249 60.6479 149.249 60.7017C149.249 60.7554 149.234 60.8037 149.206 60.8467C149.105 60.9827 149.039 61.126 149.007 61.2764C148.813 62.2217 148.702 63.0649 148.674 63.8062C148.67 63.9565 148.668 64.0872 148.668 64.1982C148.668 64.5456 148.685 64.8285 148.717 65.0469C148.81 64.8643 148.953 64.5868 149.146 64.2144C149.343 63.8312 149.472 63.5824 149.533 63.4678C149.583 63.6325 149.657 63.7811 149.753 63.9136C149.786 63.9673 149.802 64.0138 149.802 64.0532C149.802 64.0926 149.782 64.1463 149.743 64.2144C149.453 64.7264 149.22 65.2098 149.044 65.6646C148.994 65.8042 148.969 65.9224 148.969 66.019C148.973 66.0369 148.975 66.0513 148.975 66.062C148.975 66.1193 148.948 66.1569 148.894 66.1748C148.801 66.1927 148.625 66.2178 148.368 66.25C148.318 66.25 148.28 66.2124 148.255 66.1372C148.072 65.6395 147.981 64.9538 147.981 64.0801C147.981 63.4928 148.067 62.6317 148.239 61.4966C148.307 61.0132 148.341 60.6676 148.341 60.46C148.341 60.4027 148.339 60.3418 148.335 60.2773ZM151.778 60.3257C152.147 60.34 152.414 60.3704 152.579 60.417C152.693 60.4385 152.75 60.4904 152.75 60.5728C152.75 60.5871 152.749 60.6086 152.745 60.6372C152.724 60.7052 152.713 60.8037 152.713 60.9326C152.713 61.0007 152.715 61.0741 152.718 61.1528C152.808 62.3703 152.853 63.3407 152.853 64.064C152.853 65.6574 152.552 66.8605 151.95 67.6733C151.485 68.3143 150.88 68.846 150.135 69.2686C150.085 69.3008 150.04 69.3169 150 69.3169C149.954 69.3169 149.904 69.2936 149.85 69.2471C149.671 69.0967 149.485 68.9946 149.292 68.9409C150.165 68.4754 150.803 67.9723 151.204 67.4316C151.54 66.984 151.777 66.4863 151.913 65.9385C152.042 65.4336 152.106 64.8213 152.106 64.1016C152.106 63.2601 152.07 62.3864 151.999 61.4805C151.963 61.0544 151.889 60.6694 151.778 60.3257ZM164.417 69.6499C164.417 69.7108 164.388 69.7412 164.331 69.7412H163.842C163.785 69.7412 163.756 69.7108 163.756 69.6499V69.145H159.255V69.6929C159.255 69.7537 159.226 69.7842 159.169 69.7842H158.686C158.625 69.7842 158.594 69.7537 158.594 69.6929L158.616 67.6572V66.6689L158.594 65.3047C158.594 65.2474 158.623 65.2188 158.68 65.2188L160.146 65.2402H162.854L164.331 65.2188C164.388 65.2188 164.417 65.2474 164.417 65.3047L164.395 66.5024V67.625L164.417 69.6499ZM163.756 68.5972V67.4155H159.255V68.5972H163.756ZM163.756 66.8784V65.7881H159.255V66.8784H163.756ZM166.372 64.9233C166.278 65.0164 166.191 65.1436 166.108 65.3047C166.051 65.4085 166.003 65.4604 165.963 65.4604C165.938 65.4604 165.888 65.439 165.813 65.396C164.832 64.8374 164.076 64.1284 163.546 63.269C163.249 63.9458 162.753 64.5187 162.059 64.9878C161.976 65.0451 161.923 65.0737 161.897 65.0737C161.869 65.0737 161.82 65.0308 161.752 64.9448C161.652 64.8088 161.547 64.7049 161.436 64.6333C162.202 64.2144 162.726 63.679 163.009 63.0273L161.699 63.0488C161.638 63.0488 161.607 63.0202 161.607 62.9629V62.5762C161.607 62.5189 161.638 62.4902 161.699 62.4902L163.009 62.5117H163.17C163.246 62.2324 163.294 61.9102 163.315 61.5449H163.117L161.908 61.5664C161.847 61.5664 161.817 61.536 161.817 61.4751V61.0938C161.817 61.0329 161.847 61.0024 161.908 61.0024L163.117 61.0239H163.337V60.895C163.34 60.8019 163.342 60.7088 163.342 60.6157C163.342 60.3293 163.323 60.084 163.283 59.8799C163.537 59.8942 163.745 59.9103 163.906 59.9282C164.01 59.939 164.062 59.9712 164.062 60.0249C164.062 60.0607 164.041 60.1305 163.998 60.2344C163.962 60.3454 163.944 60.528 163.944 60.7822V61.0239H164.588L165.792 61.0024C165.849 61.0024 165.877 61.0329 165.877 61.0938V61.4751C165.877 61.536 165.849 61.5664 165.792 61.5664L164.588 61.5449H163.922C163.897 61.8923 163.853 62.2145 163.788 62.5117H164.835L166.141 62.4902C166.201 62.4902 166.232 62.5189 166.232 62.5762V62.9629C166.232 63.0202 166.201 63.0488 166.141 63.0488L164.835 63.0273H163.987C164.51 63.7829 165.305 64.4149 166.372 64.9233ZM161.205 62.9629C161.205 63.0202 161.174 63.0488 161.113 63.0488L159.851 63.0273H159.529C159.898 63.5358 160.404 63.9619 161.049 64.3057C160.945 64.3988 160.857 64.5044 160.786 64.6226C160.725 64.7336 160.673 64.7891 160.63 64.7891C160.59 64.7891 160.54 64.764 160.479 64.7139C159.967 64.3558 159.534 63.9046 159.18 63.3604C158.861 64.1445 158.245 64.8481 157.332 65.4712C157.243 65.5356 157.183 65.5679 157.155 65.5679C157.123 65.5679 157.074 65.5213 157.01 65.4282C156.91 65.2886 156.804 65.1776 156.693 65.0952C157.703 64.5402 158.363 63.8509 158.675 63.0273H158.143L156.87 63.0488C156.809 63.0488 156.779 63.0202 156.779 62.9629V62.5762C156.779 62.5189 156.809 62.4902 156.87 62.4902L158.143 62.5117H158.825C158.893 62.2145 158.938 61.8923 158.959 61.5449H158.455L157.289 61.5664C157.228 61.5664 157.198 61.5378 157.198 61.4805V61.0938C157.198 61.0329 157.228 61.0024 157.289 61.0024L158.455 61.0293H158.992V60.895C158.995 60.7876 158.997 60.6855 158.997 60.5889C158.997 60.3275 158.981 60.0929 158.949 59.8853C159.181 59.896 159.389 59.9103 159.572 59.9282C159.683 59.939 159.738 59.9712 159.738 60.0249C159.738 60.0679 159.717 60.1413 159.674 60.2451C159.631 60.3382 159.606 60.5262 159.599 60.8091L159.588 61.0293H159.808L160.963 61.0024C161.02 61.0024 161.049 61.0329 161.049 61.0938V61.4805C161.049 61.5378 161.02 61.5664 160.963 61.5664L159.808 61.5449H159.566C159.541 61.8923 159.497 62.2145 159.432 62.5117H159.851L161.113 62.4902C161.174 62.4902 161.205 62.5189 161.205 62.5762V62.9629ZM171.136 60.2773C172.027 60.6462 172.98 60.9434 173.993 61.1689C174.058 61.1833 174.09 61.2137 174.09 61.2603C174.09 61.2817 174.086 61.3068 174.079 61.3354C174.018 61.5646 173.963 61.7329 173.913 61.8403C173.895 61.894 173.855 61.9209 173.794 61.9209C173.787 61.9209 173.78 61.9209 173.773 61.9209C172.602 61.6452 171.671 61.3444 170.98 61.0186C170.93 60.9971 170.905 60.9631 170.905 60.9165C170.905 60.9022 170.907 60.8879 170.91 60.8735C170.935 60.784 171.01 60.5853 171.136 60.2773ZM169.041 63.6289C169.657 63.6289 170.42 63.5555 171.329 63.4087C172.138 63.2798 172.82 63.1491 173.375 63.0166C173.529 62.9736 173.644 62.9289 173.719 62.8823C173.759 62.8537 173.802 62.8394 173.848 62.8394C173.87 62.8394 173.911 62.8573 173.972 62.8931C174.151 63.0291 174.287 63.1473 174.38 63.2476C174.43 63.2977 174.455 63.3514 174.455 63.4087C174.455 63.4946 174.414 63.5537 174.332 63.5859C174.224 63.6432 174.097 63.7381 173.95 63.8706C173.635 64.1929 172.862 65.0039 171.63 66.3037C171.859 66.1999 172.076 66.1479 172.28 66.1479C172.588 66.1479 172.847 66.2661 173.059 66.5024C173.245 66.7173 173.374 67.0073 173.445 67.3726C173.556 67.9168 173.717 68.257 173.929 68.3931C174.118 68.5112 174.493 68.5703 175.051 68.5703C175.513 68.5703 176.056 68.5148 176.679 68.4038C176.697 68.4002 176.713 68.3984 176.727 68.3984C176.774 68.3984 176.802 68.4378 176.813 68.5166C176.842 68.6921 176.856 68.8711 176.856 69.0537C176.856 69.1253 176.808 69.1647 176.711 69.1719C176.174 69.2686 175.649 69.3169 175.137 69.3169C174.31 69.3169 173.737 69.1969 173.418 68.957C173.146 68.7529 172.957 68.3877 172.849 67.8613C172.763 67.4137 172.658 67.104 172.532 66.9321C172.407 66.7531 172.231 66.6636 172.006 66.6636C171.601 66.6636 171.186 66.8766 170.76 67.3027C170.405 67.6429 169.838 68.2749 169.057 69.1987C169.028 69.2238 168.998 69.2363 168.966 69.2363C168.934 69.2363 168.905 69.2274 168.88 69.2095C168.74 69.0985 168.597 68.9696 168.45 68.8228C168.429 68.8013 168.418 68.7744 168.418 68.7422C168.418 68.6992 168.436 68.6598 168.472 68.624C168.622 68.4736 169.322 67.7593 170.572 66.481C170.597 66.4523 171.458 65.5195 173.155 63.6826C171.433 64.0371 170.421 64.2466 170.121 64.311C170.049 64.3289 169.899 64.3809 169.669 64.4668C169.587 64.5026 169.521 64.5205 169.471 64.5205C169.421 64.5205 169.374 64.4757 169.331 64.3862C169.224 64.1714 169.127 63.9189 169.041 63.6289ZM184.402 61.373C183.804 61.4661 182.888 61.6309 181.652 61.8672C181.506 61.8923 181.377 61.9263 181.266 61.9692C181.183 62.005 181.115 62.0229 181.062 62.0229C180.986 62.0229 180.927 61.9782 180.884 61.8887C180.784 61.6917 180.696 61.4393 180.621 61.1313C180.807 61.1564 180.988 61.1689 181.164 61.1689C181.307 61.1689 181.448 61.1618 181.588 61.1475C182.555 61.0472 183.468 60.9147 184.327 60.75C184.481 60.7249 184.594 60.6909 184.666 60.6479C184.734 60.5978 184.785 60.5728 184.821 60.5728C184.875 60.5728 184.941 60.6014 185.02 60.6587C185.224 60.8234 185.382 60.9774 185.493 61.1206C185.543 61.1851 185.568 61.2477 185.568 61.3086C185.568 61.4053 185.512 61.4751 185.401 61.5181C185.262 61.561 185.09 61.6899 184.886 61.9048C183.897 62.9468 182.959 63.9207 182.071 64.8267L182.104 64.8589C182.902 64.3325 183.692 64.0693 184.472 64.0693C185.31 64.0693 185.964 64.3254 186.433 64.8374C186.834 65.2671 187.034 65.8185 187.034 66.4917C187.034 67.3905 186.678 68.0977 185.965 68.6133C185.321 69.0824 184.467 69.3169 183.403 69.3169C182.734 69.3169 182.229 69.1719 181.889 68.8818C181.62 68.6562 181.486 68.368 181.486 68.0171C181.486 67.6948 181.618 67.4227 181.883 67.2007C182.127 66.9966 182.424 66.8945 182.775 66.8945C183.291 66.8945 183.72 67.0592 184.064 67.3887C184.35 67.6644 184.544 68.0386 184.644 68.5112C185.718 68.1353 186.255 67.4549 186.255 66.4702C186.255 65.8866 186.046 65.4246 185.627 65.0845C185.276 64.8052 184.85 64.6655 184.349 64.6655C183.36 64.6655 182.352 65.0791 181.325 65.9062C181.124 66.0638 180.802 66.3628 180.358 66.8032C180.308 66.8534 180.265 66.8784 180.229 66.8784C180.2 66.8784 180.17 66.8605 180.138 66.8247C179.937 66.6278 179.801 66.4827 179.729 66.3896C179.712 66.3682 179.703 66.3467 179.703 66.3252C179.703 66.2965 179.726 66.2625 179.772 66.2231C180.492 65.5965 181.321 64.7783 182.259 63.7686C183.208 62.7373 183.923 61.9388 184.402 61.373ZM183.973 68.667C183.894 68.2803 183.745 67.9849 183.527 67.7808C183.319 67.5874 183.076 67.4907 182.796 67.4907C182.596 67.4907 182.431 67.5409 182.302 67.6411C182.184 67.7342 182.125 67.856 182.125 68.0063C182.125 68.2212 182.234 68.4002 182.453 68.5435C182.66 68.6616 182.929 68.7207 183.258 68.7207C183.523 68.7207 183.761 68.7028 183.973 68.667Z" fill="#707070"/>
<rect x="24" y="96" width="354" height="1" fill="#D0D0D0"/>
<path d="M35.1289 124.403C35.1289 124.476 35.0924 124.513 35.0195 124.513H34.3428C34.2699 124.513 34.2334 124.476 34.2334 124.403V123.549H27.7529V124.431C27.7529 124.504 27.721 124.54 27.6572 124.54H26.9668C26.8939 124.54 26.8574 124.504 26.8574 124.431L26.8848 119.632V116.932L26.8574 113.404C26.8574 113.327 26.8939 113.288 26.9668 113.288L28.915 113.315H33.0713L35.0195 113.288C35.0924 113.288 35.1289 113.327 35.1289 113.404L35.1016 116.576V119.632L35.1289 124.403ZM34.2334 122.749V118.695H27.7529V122.749H34.2334ZM34.2334 117.909V114.115H27.7529V117.909H34.2334ZM51.4805 121.84C51.3073 122.018 51.1729 122.195 51.0771 122.373C50.9906 122.514 50.9336 122.585 50.9062 122.585C50.8835 122.585 50.8151 122.553 50.7012 122.489C48.2767 120.963 46.4606 119.001 45.2529 116.604C45.2529 117.966 45.262 119.582 45.2803 121.45H46.2852L48.0352 121.423C48.1126 121.423 48.1514 121.459 48.1514 121.532V122.134C48.1514 122.211 48.1126 122.25 48.0352 122.25L46.2852 122.223H45.2939C45.3031 122.747 45.3167 123.378 45.335 124.116C45.3441 124.563 45.3486 124.813 45.3486 124.868C45.3486 124.941 45.3122 124.978 45.2393 124.978H44.4941C44.4212 124.978 44.3848 124.941 44.3848 124.868C44.3848 124.832 44.387 124.686 44.3916 124.431C44.4098 123.624 44.4212 122.888 44.4258 122.223H43.5713L41.835 122.25C41.762 122.25 41.7256 122.211 41.7256 122.134V121.532C41.7256 121.459 41.762 121.423 41.835 121.423L43.5713 121.45H44.4395C44.4668 120.092 44.4805 118.524 44.4805 116.747C43.2956 119.135 41.5934 121.067 39.374 122.544C39.2555 122.617 39.1803 122.653 39.1484 122.653C39.0938 122.653 39.0368 122.587 38.9775 122.455C38.8682 122.255 38.7292 122.088 38.5605 121.956C39.6908 121.327 40.7686 120.457 41.7939 119.345C42.6963 118.36 43.4391 117.308 44.0225 116.187H41.0557L39.1895 116.214C39.1165 116.214 39.0801 116.177 39.0801 116.104V115.469C39.0801 115.396 39.1165 115.359 39.1895 115.359L41.0557 115.387H44.4258V114.143C44.4258 113.359 44.3939 112.794 44.3301 112.447C44.7038 112.461 45.0251 112.488 45.2939 112.529C45.4079 112.548 45.4648 112.586 45.4648 112.646C45.4648 112.691 45.4535 112.743 45.4307 112.803C45.4033 112.88 45.3874 112.93 45.3828 112.953C45.3327 113.135 45.3076 113.527 45.3076 114.129V115.387H48.9648L50.8379 115.359C50.9108 115.359 50.9473 115.396 50.9473 115.469V116.104C50.9473 116.177 50.9108 116.214 50.8379 116.214L48.9648 116.187H45.6973C47.0964 118.647 49.0241 120.532 51.4805 121.84ZM65.3438 118.976C65.3438 119.049 65.305 119.085 65.2275 119.085L63.3408 119.058H59.6836L57.79 119.085C57.7171 119.085 57.6807 119.049 57.6807 118.976V118.415C57.6807 118.342 57.7171 118.306 57.79 118.306L59.2939 118.333C59.5446 117.654 59.777 116.938 59.9912 116.187C59.6084 116.191 59.2712 116.198 58.9795 116.207C58.9567 116.207 58.8838 116.209 58.7607 116.214C58.7197 116.214 58.6947 116.214 58.6855 116.214C58.6126 116.214 58.5762 116.177 58.5762 116.104V115.571C58.5762 115.485 58.6126 115.441 58.6855 115.441L60.1895 115.469C60.2806 115.132 60.415 114.557 60.5928 113.746H60.0596L58.2549 113.773C58.182 113.773 58.1455 113.737 58.1455 113.664V113.104C58.1455 113.031 58.182 112.994 58.2549 112.994L60.0596 113.021H63.0742L64.8789 112.994C64.9518 112.994 64.9883 113.031 64.9883 113.104V113.664C64.9883 113.737 64.9518 113.773 64.8789 113.773L63.0742 113.746H61.4199C61.3379 114.179 61.2057 114.753 61.0234 115.469H62.1035L63.6484 115.441C63.7214 115.441 63.7578 115.485 63.7578 115.571L63.7305 116.61V118.333L65.2275 118.306C65.305 118.306 65.3438 118.342 65.3438 118.415V118.976ZM62.917 118.333V116.187H60.832C60.5951 117.002 60.3717 117.718 60.1621 118.333H62.917ZM64.2773 124.841C64.2773 124.914 64.2409 124.95 64.168 124.95H63.5186C63.4456 124.95 63.4092 124.914 63.4092 124.841V124.267H59.5195V124.882C59.5195 124.959 59.4831 124.998 59.4102 124.998H58.7744C58.7015 124.998 58.665 124.959 58.665 124.882L58.6924 122.701V121.792L58.665 120.473C58.665 120.4 58.7015 120.363 58.7744 120.363L60.415 120.391H62.541L64.168 120.363C64.2409 120.363 64.2773 120.4 64.2773 120.473L64.25 121.635V122.688L64.2773 124.841ZM63.4092 123.542V121.102H59.5195V123.542H63.4092ZM57.3525 124.636C57.3525 124.709 57.3138 124.745 57.2363 124.745H56.6621C56.5892 124.745 56.5527 124.709 56.5527 124.636V124.185H54.2832V124.882C54.2832 124.959 54.2467 124.998 54.1738 124.998H53.5996C53.5221 124.998 53.4834 124.959 53.4834 124.882L53.5107 122.831V121.97L53.4834 120.753C53.4834 120.68 53.5199 120.644 53.5928 120.644L54.8301 120.671H55.9922L57.2432 120.644C57.3161 120.644 57.3525 120.68 57.3525 120.753L57.3252 121.744V122.66L57.3525 124.636ZM56.5527 123.501V121.354H54.2832V123.501H56.5527ZM57.7422 115.646C57.7422 115.729 57.7035 115.77 57.626 115.77L56.1562 115.742H54.4336L52.9639 115.77C52.891 115.77 52.8545 115.729 52.8545 115.646V115.065C52.8545 114.993 52.891 114.956 52.9639 114.956L54.4336 114.983H56.1562L57.626 114.956C57.7035 114.956 57.7422 114.993 57.7422 115.065V115.646ZM57.4072 113.712C57.4072 113.785 57.3685 113.821 57.291 113.821L56.0605 113.794H54.8574L53.627 113.821C53.5495 113.821 53.5107 113.785 53.5107 113.712V113.151C53.5107 113.074 53.5495 113.035 53.627 113.035L54.8574 113.069H56.0605L57.291 113.035C57.3685 113.035 57.4072 113.074 57.4072 113.151V113.712ZM57.209 119.406C57.209 119.484 57.1657 119.522 57.0791 119.522L55.9375 119.495H54.8848L53.7227 119.522C53.6497 119.522 53.6133 119.484 53.6133 119.406V118.859C53.6133 118.786 53.6497 118.75 53.7227 118.75L54.8848 118.777H55.9375L57.0791 118.75C57.1657 118.75 57.209 118.786 57.209 118.859V119.406ZM57.209 117.547C57.209 117.62 57.1657 117.656 57.0791 117.656L55.9375 117.629H54.8848L53.7227 117.656C53.6497 117.656 53.6133 117.62 53.6133 117.547V117C53.6133 116.927 53.6497 116.891 53.7227 116.891L54.8848 116.918H55.9375L57.0791 116.891C57.1657 116.891 57.209 116.927 57.209 117V117.547Z" fill="#0085CB"/>
<path d="M338.162 121.492C338.162 121.562 338.131 121.598 338.068 121.598L336.387 121.574H332.473L330.797 121.598C330.73 121.598 330.697 121.562 330.697 121.492V121.082C330.697 121.02 330.73 120.988 330.797 120.988L332.473 121.012H332.789V119.928L331.213 119.951C331.15 119.951 331.119 119.916 331.119 119.846V119.436C331.119 119.373 331.15 119.342 331.213 119.342L332.789 119.365V119.295C332.789 118.955 332.764 118.674 332.713 118.451C332.947 118.463 333.18 118.488 333.41 118.527C333.508 118.539 333.557 118.57 333.557 118.621C333.557 118.68 333.537 118.74 333.498 118.803C333.455 118.865 333.434 118.996 333.434 119.195V119.365H335.232V119.318C335.232 118.943 335.209 118.654 335.162 118.451C335.521 118.482 335.758 118.508 335.871 118.527C335.977 118.539 336.029 118.574 336.029 118.633C336.029 118.672 336.004 118.732 335.953 118.814C335.914 118.885 335.895 119 335.895 119.16V119.365H335.941L337.564 119.342C337.627 119.342 337.658 119.373 337.658 119.436V119.846C337.658 119.916 337.627 119.951 337.564 119.951L335.941 119.928H335.895V121.012H336.387L338.068 120.988C338.131 120.988 338.162 121.02 338.162 121.082V121.492ZM335.232 121.012V119.928H333.434V121.012H335.232ZM338.643 123.666C338.541 123.783 338.469 123.951 338.426 124.17C338.406 124.291 338.383 124.363 338.355 124.387C338.332 124.406 338.264 124.42 338.15 124.428C336.592 124.525 335.172 124.574 333.891 124.574C332.457 124.574 331.473 124.445 330.938 124.188C330.441 123.961 330.057 123.566 329.783 123.004C329.494 123.316 329.074 123.705 328.523 124.17C328.379 124.287 328.295 124.371 328.271 124.422C328.225 124.492 328.178 124.527 328.131 124.527C328.08 124.527 328.031 124.492 327.984 124.422C327.848 124.211 327.732 124.002 327.639 123.795C327.928 123.65 328.172 123.502 328.371 123.35C328.797 123.025 329.156 122.703 329.449 122.383V119.406H328.588L327.768 119.43C327.705 119.43 327.674 119.393 327.674 119.318V118.803C327.674 118.74 327.705 118.709 327.768 118.709L328.588 118.732H329.197L330.064 118.709C330.127 118.709 330.158 118.74 330.158 118.803L330.135 119.934V122.43C330.322 122.973 330.682 123.367 331.213 123.613C331.686 123.805 332.486 123.9 333.615 123.9C335.279 123.9 336.955 123.822 338.643 123.666ZM338.104 117.379C338.053 117.652 337.961 117.844 337.828 117.953C337.66 118.09 337.156 118.158 336.316 118.158C335.555 118.158 335.102 118.098 334.957 117.977C334.859 117.891 334.795 117.795 334.764 117.689C334.725 117.568 334.705 117.381 334.705 117.127V116.535L334.682 116.066C334.682 116.004 334.713 115.973 334.775 115.973L335.654 115.996H337.096V115.117H335.701L334.693 115.141C334.623 115.141 334.588 115.109 334.588 115.047V114.631C334.588 114.564 334.623 114.531 334.693 114.531L335.701 114.555H336.721L337.676 114.531C337.738 114.531 337.77 114.562 337.77 114.625L337.74 115.322V115.732L337.77 116.465C337.77 116.527 337.738 116.559 337.676 116.559L336.721 116.535H335.367V116.992C335.367 117.277 335.402 117.451 335.473 117.514C335.547 117.576 335.875 117.607 336.457 117.607C336.977 117.607 337.281 117.566 337.371 117.484C337.449 117.41 337.492 117.197 337.5 116.846C337.637 116.947 337.785 117.023 337.945 117.074C338.062 117.121 338.121 117.174 338.121 117.232C338.121 117.256 338.115 117.305 338.104 117.379ZM334.084 117.379C334.033 117.652 333.941 117.844 333.809 117.953C333.641 118.09 333.168 118.158 332.391 118.158C331.645 118.158 331.201 118.098 331.061 117.977C330.955 117.895 330.885 117.799 330.85 117.689C330.814 117.568 330.797 117.381 330.797 117.127V116.535L330.773 116.066C330.773 116.004 330.809 115.973 330.879 115.973L331.729 115.996H333.146V115.117H331.781L330.756 115.141C330.693 115.141 330.662 115.109 330.662 115.047V114.631C330.662 114.564 330.693 114.531 330.756 114.531L331.781 114.555H332.777L333.727 114.531C333.789 114.531 333.82 114.562 333.82 114.625L333.797 115.322V115.732L333.82 116.465C333.82 116.527 333.789 116.559 333.727 116.559L332.777 116.535H331.453V116.98C331.453 117.273 331.49 117.451 331.564 117.514C331.639 117.576 331.93 117.607 332.438 117.607C332.98 117.607 333.297 117.562 333.387 117.473C333.457 117.406 333.496 117.197 333.504 116.846C333.645 116.959 333.789 117.039 333.938 117.086C334.043 117.125 334.096 117.176 334.096 117.238C334.096 117.262 334.092 117.309 334.084 117.379ZM338.057 122.898C337.951 123 337.863 123.123 337.793 123.268C337.723 123.393 337.66 123.455 337.605 123.455C337.574 123.455 337.516 123.441 337.43 123.414C336.578 123.07 335.828 122.65 335.18 122.154C335.137 122.127 335.115 122.104 335.115 122.084C335.115 122.057 335.139 122.02 335.186 121.973L335.402 121.768C335.457 121.713 335.498 121.686 335.525 121.686C335.545 121.686 335.576 121.701 335.619 121.732C336.209 122.189 337.021 122.578 338.057 122.898ZM330.1 116.248C330.115 116.275 330.123 116.297 330.123 116.312C330.123 116.34 330.088 116.383 330.018 116.441L329.736 116.658C329.658 116.717 329.605 116.746 329.578 116.746C329.551 116.746 329.523 116.725 329.496 116.682C329.035 115.932 328.592 115.355 328.166 114.953C328.143 114.93 328.131 114.91 328.131 114.895C328.131 114.871 328.17 114.834 328.248 114.783L328.518 114.59C328.592 114.543 328.639 114.52 328.658 114.52C328.678 114.52 328.701 114.531 328.729 114.555C329.232 115.059 329.689 115.623 330.1 116.248ZM333.662 122.154C333.65 122.205 333.598 122.244 333.504 122.271C333.477 122.279 333.42 122.314 333.334 122.377C333.248 122.436 333.189 122.473 333.158 122.488C332.713 122.793 332.182 123.068 331.564 123.314C331.471 123.35 331.408 123.367 331.377 123.367C331.33 123.367 331.264 123.314 331.178 123.209C331.096 123.088 330.988 122.992 330.855 122.922C331.477 122.715 332.061 122.451 332.607 122.131C332.799 121.998 332.959 121.85 333.088 121.686C333.189 121.736 333.344 121.84 333.551 121.996C333.625 122.047 333.662 122.094 333.662 122.137V122.154ZM350.443 124.1C350.252 124.24 350.105 124.389 350.004 124.545C349.941 124.639 349.893 124.686 349.857 124.686C349.834 124.686 349.777 124.654 349.688 124.592C348.035 123.287 347.02 121.363 346.641 118.82H345.047C345.008 119.637 344.924 120.385 344.795 121.064C344.553 122.357 343.988 123.543 343.102 124.621C343.043 124.699 342.994 124.738 342.955 124.738C342.932 124.738 342.881 124.697 342.803 124.615C342.689 124.486 342.541 124.375 342.357 124.281C343.283 123.309 343.875 122.133 344.133 120.754C344.234 120.191 344.299 119.518 344.326 118.732C344.342 118.295 344.35 117.543 344.35 116.477L344.326 114.906C344.326 114.84 344.357 114.807 344.42 114.807L345.896 114.83H348.059L349.535 114.807C349.598 114.807 349.629 114.84 349.629 114.906L349.605 116.119V118.041L349.629 119.359C349.629 119.422 349.598 119.453 349.535 119.453H348.99C348.928 119.453 348.896 119.422 348.896 119.359V118.82H347.326C347.51 120.047 347.893 121.131 348.475 122.072C349.002 122.924 349.658 123.6 350.443 124.1ZM348.896 118.158V115.492H345.07V116.559C345.07 117.305 345.066 117.838 345.059 118.158H348.896ZM343.676 118.803C343.66 118.979 343.652 119.143 343.652 119.295C343.652 119.404 343.637 119.48 343.605 119.523C343.578 119.562 343.514 119.607 343.412 119.658C342.846 119.92 342.422 120.111 342.141 120.232V121.768L342.152 123.59C342.152 124.062 342.049 124.375 341.842 124.527C341.717 124.621 341.557 124.682 341.361 124.709C341.193 124.732 340.92 124.744 340.541 124.744C340.42 124.744 340.346 124.73 340.318 124.703C340.299 124.68 340.273 124.613 340.242 124.504C340.195 124.293 340.119 124.117 340.014 123.977C340.314 124 340.635 124.012 340.975 124.012C341.244 124.012 341.389 123.893 341.408 123.654C341.416 123.611 341.42 123.551 341.42 123.473V120.52C341.053 120.668 340.752 120.781 340.518 120.859C340.291 120.941 340.145 121.018 340.078 121.088C340.02 121.143 339.967 121.17 339.92 121.17C339.869 121.17 339.83 121.135 339.803 121.064C339.725 120.861 339.648 120.623 339.574 120.35C339.914 120.287 340.266 120.195 340.629 120.074C340.863 120 341.127 119.908 341.42 119.799V117.197H340.951L339.75 117.221C339.688 117.221 339.656 117.188 339.656 117.121V116.605C339.656 116.543 339.688 116.512 339.75 116.512L340.951 116.535H341.42V115.574C341.42 114.914 341.393 114.43 341.338 114.121C341.639 114.137 341.902 114.162 342.129 114.197C342.227 114.209 342.275 114.24 342.275 114.291C342.275 114.334 342.252 114.41 342.205 114.52C342.162 114.609 342.141 114.957 342.141 115.562V116.535H342.287L343.494 116.512C343.561 116.512 343.594 116.543 343.594 116.605V117.121C343.594 117.188 343.561 117.221 343.494 117.221L342.287 117.197H342.141V119.512C342.539 119.344 343.051 119.107 343.676 118.803ZM361.412 121.475C361.412 121.537 361.381 121.568 361.318 121.568H360.75C360.688 121.568 360.656 121.537 360.656 121.475V120.848H357.275V122.588L357.299 124.75C357.299 124.812 357.268 124.844 357.205 124.844H356.59C356.527 124.844 356.496 124.812 356.496 124.75L356.52 122.6V120.848H353.35V121.521C353.35 121.584 353.318 121.615 353.256 121.615H352.688C352.625 121.615 352.594 121.584 352.594 121.521L352.617 119.26V118.135L352.594 116.605C352.594 116.543 352.625 116.512 352.688 116.512L354.381 116.535H356.52V115.574C356.52 114.859 356.492 114.348 356.438 114.039C356.691 114.051 356.967 114.07 357.264 114.098C357.361 114.113 357.41 114.15 357.41 114.209C357.41 114.26 357.391 114.332 357.352 114.426C357.301 114.566 357.275 114.93 357.275 115.516V116.535H359.625L361.318 116.512C361.381 116.512 361.412 116.543 361.412 116.605L361.389 117.965V119.225L361.412 121.475ZM360.656 120.174V117.209H357.275V120.174H360.656ZM356.52 120.174V117.209H353.35V120.174H356.52Z" fill="#0085CB"/>
<path d="M31.9639 159.432V160.457H26.6865V163.759H30.6787V164.784H26.6865V168.722H32.0596V169.747H25.4697V159.432H31.9639ZM35.0332 162.597V163.896C35.7897 162.925 36.6237 162.439 37.5352 162.439C38.1777 162.439 38.679 162.642 39.0391 163.048C39.3626 163.408 39.5244 163.886 39.5244 164.483V169.747H38.3623V164.894C38.3623 163.918 37.9613 163.431 37.1592 163.431C36.4346 163.431 35.7396 163.905 35.0742 164.853V169.747H33.9395V162.597H35.0332ZM47.9121 161.701L47.8301 162.679C47.4609 162.679 47.1647 162.727 46.9414 162.822C46.7682 162.895 46.5882 163.021 46.4014 163.198C46.8708 163.604 47.1055 164.126 47.1055 164.764C47.1055 165.52 46.8275 166.115 46.2715 166.548C45.793 166.917 45.1891 167.102 44.46 167.102C44.0635 167.102 43.7035 167.033 43.3799 166.896C42.9469 167.138 42.7305 167.402 42.7305 167.689C42.7305 167.904 42.8216 168.056 43.0039 168.147C43.1953 168.243 43.5485 168.321 44.0635 168.38L45.5059 168.517C46.4583 168.608 47.1214 168.822 47.4951 169.159C47.7822 169.424 47.9258 169.788 47.9258 170.253C47.9258 170.891 47.5999 171.395 46.9482 171.764C46.3421 172.11 45.5355 172.283 44.5283 172.283C43.4665 172.283 42.6553 172.105 42.0947 171.75C41.6162 171.449 41.377 171.053 41.377 170.561C41.377 169.882 41.8486 169.387 42.792 169.077C42.0811 168.913 41.7256 168.558 41.7256 168.011C41.7256 167.505 42.0719 167.031 42.7646 166.589C42.1266 166.16 41.8076 165.552 41.8076 164.764C41.8076 164.039 42.0947 163.453 42.6689 163.007C43.1611 162.629 43.7559 162.439 44.4531 162.439C44.9909 162.439 45.4626 162.558 45.8682 162.795C46.1416 162.38 46.4447 162.091 46.7773 161.927C47.0827 161.776 47.4609 161.701 47.9121 161.701ZM44.46 163.212C43.9769 163.212 43.585 163.369 43.2842 163.684C43.0107 163.971 42.874 164.335 42.874 164.777C42.874 165.283 43.0495 165.684 43.4004 165.98C43.6875 166.222 44.0407 166.343 44.46 166.343C44.9385 166.343 45.3281 166.186 45.6289 165.871C45.9023 165.584 46.0391 165.219 46.0391 164.777C46.0391 164.271 45.8636 163.87 45.5127 163.574C45.2256 163.333 44.8747 163.212 44.46 163.212ZM43.6328 169.262C42.7897 169.499 42.3682 169.879 42.3682 170.403C42.3682 170.795 42.5983 171.091 43.0586 171.292C43.4368 171.456 43.9382 171.538 44.5625 171.538C45.3509 171.538 45.9593 171.41 46.3877 171.155C46.7295 170.955 46.9004 170.7 46.9004 170.39C46.9004 170.098 46.7819 169.882 46.5449 169.74C46.2943 169.594 45.8727 169.49 45.2803 169.426L43.6328 169.262ZM50.8516 159.247V169.747H49.7168V159.247H50.8516ZM54.584 162.597V169.747H53.4355V162.597H54.584ZM54.7139 159.835V161.223H53.3125V159.835H54.7139ZM62.001 164.148L60.9072 164.497C60.6657 163.677 60.1484 163.267 59.3555 163.267C58.8678 163.267 58.4941 163.374 58.2344 163.588C58.0111 163.77 57.8994 164.005 57.8994 164.292C57.8994 164.657 58.0133 164.925 58.2412 165.099C58.4508 165.258 58.8268 165.404 59.3691 165.536L59.9434 165.673C60.8138 165.882 61.4131 166.16 61.7412 166.507C62.0329 166.812 62.1787 167.241 62.1787 167.792C62.1787 168.466 61.9212 168.995 61.4062 169.378C60.9186 169.738 60.2578 169.918 59.4238 169.918C57.9564 169.918 57.0085 169.339 56.5801 168.182L57.6875 167.785C57.9655 168.646 58.5534 169.077 59.4512 169.077C60.0391 169.077 60.472 168.945 60.75 168.681C60.9642 168.48 61.0713 168.22 61.0713 167.901C61.0713 167.5 60.9574 167.213 60.7295 167.04C60.5244 166.885 60.1165 166.728 59.5059 166.568L58.9316 166.445C58.0931 166.231 57.5212 165.951 57.2158 165.604C56.9606 165.308 56.833 164.898 56.833 164.374C56.833 163.759 57.0723 163.273 57.5508 162.918C58.002 162.59 58.6081 162.426 59.3691 162.426C60.7044 162.426 61.5817 163 62.001 164.148ZM65.3984 159.247V163.868C66.1458 162.907 66.9661 162.426 67.8594 162.426C68.4974 162.426 68.9987 162.633 69.3633 163.048C69.6868 163.412 69.8486 163.891 69.8486 164.483V169.747H68.6865V164.894C68.6865 163.918 68.2855 163.431 67.4834 163.431C66.7679 163.431 66.0729 163.905 65.3984 164.853V169.747H64.2637V159.247H65.3984Z" fill="#282828"/>
<path d="M33.17 250.366H34.626V259.942H33.17V250.366ZM34.192 254.44H36.432V255.658H34.192V254.44ZM24.658 251.822H32.204V252.984H24.658V251.822ZM28.438 253.586C29.0447 253.586 29.5813 253.689 30.048 253.894C30.5147 254.09 30.8787 254.37 31.14 254.734C31.4013 255.098 31.532 255.523 31.532 256.008C31.532 256.484 31.4013 256.904 31.14 257.268C30.8787 257.632 30.5147 257.917 30.048 258.122C29.5813 258.327 29.0447 258.43 28.438 258.43C27.822 258.43 27.2807 258.327 26.814 258.122C26.3473 257.917 25.9833 257.632 25.722 257.268C25.4607 256.904 25.33 256.484 25.33 256.008C25.33 255.523 25.4607 255.098 25.722 254.734C25.9833 254.37 26.3473 254.09 26.814 253.894C27.2807 253.689 27.822 253.586 28.438 253.586ZM28.438 254.706C27.934 254.706 27.5233 254.823 27.206 255.056C26.8887 255.289 26.73 255.607 26.73 256.008C26.73 256.409 26.8887 256.727 27.206 256.96C27.5233 257.184 27.934 257.296 28.438 257.296C28.942 257.296 29.348 257.184 29.656 256.96C29.964 256.727 30.118 256.409 30.118 256.008C30.118 255.607 29.964 255.289 29.656 255.056C29.348 254.823 28.942 254.706 28.438 254.706ZM27.696 250.366H29.166V252.41H27.696V250.366ZM26.534 261.706H35.158V262.896H26.534V261.706ZM26.534 259.2H28.004V262.224H26.534V259.2ZM42.0589 250.94H50.2349V252.116H42.0589V250.94ZM40.6029 255.434H52.1949V256.624H40.6029V255.434ZM45.6569 256.26H47.1129V259.13H45.6569V256.26ZM49.3109 250.94H50.7529V251.906C50.7529 252.447 50.7342 253.049 50.6969 253.712C50.6689 254.375 50.5522 255.135 50.3469 255.994L48.9049 255.854C49.1102 255.005 49.2269 254.267 49.2549 253.642C49.2922 253.017 49.3109 252.438 49.3109 251.906V250.94ZM41.7929 258.724H50.8089V263.162H49.3389V259.9H41.7929V258.724ZM60.0058 251.29C60.6405 251.29 61.2005 251.477 61.6858 251.85C62.1711 252.223 62.5538 252.746 62.8338 253.418C63.1138 254.09 63.2538 254.883 63.2538 255.798C63.2538 256.722 63.1138 257.525 62.8338 258.206C62.5538 258.878 62.1711 259.401 61.6858 259.774C61.2005 260.138 60.6405 260.32 60.0058 260.32C59.3805 260.32 58.8205 260.138 58.3258 259.774C57.8405 259.401 57.4578 258.878 57.1778 258.206C56.9071 257.525 56.7718 256.722 56.7718 255.798C56.7718 254.883 56.9071 254.09 57.1778 253.418C57.4578 252.746 57.8405 252.223 58.3258 251.85C58.8205 251.477 59.3805 251.29 60.0058 251.29ZM60.0058 252.62C59.6418 252.62 59.3198 252.746 59.0398 252.998C58.7691 253.25 58.5545 253.614 58.3958 254.09C58.2465 254.566 58.1718 255.135 58.1718 255.798C58.1718 256.47 58.2465 257.044 58.3958 257.52C58.5545 257.996 58.7691 258.365 59.0398 258.626C59.3198 258.878 59.6418 259.004 60.0058 259.004C60.3791 259.004 60.7011 258.878 60.9718 258.626C61.2518 258.365 61.4665 257.996 61.6158 257.52C61.7745 257.044 61.8538 256.47 61.8538 255.798C61.8538 255.135 61.7745 254.566 61.6158 254.09C61.4665 253.614 61.2518 253.25 60.9718 252.998C60.7011 252.746 60.3791 252.62 60.0058 252.62ZM65.7178 250.352H67.1878V263.176H65.7178V250.352ZM62.7918 255.112H66.3478V256.302H62.7918V255.112Z" fill="#282828"/>
<path d="M36.1475 213.054C36.1475 213.127 36.111 213.163 36.0381 213.163H35.375C35.3021 213.163 35.2656 213.127 35.2656 213.054V212.322H31.3213V214.353L31.3486 216.875C31.3486 216.948 31.3122 216.984 31.2393 216.984H30.5215C30.4486 216.984 30.4121 216.948 30.4121 216.875L30.4395 214.366V212.322H26.7412V213.108C26.7412 213.181 26.7048 213.218 26.6318 213.218H25.9688C25.8958 213.218 25.8594 213.181 25.8594 213.108L25.8867 210.47V209.157L25.8594 207.373C25.8594 207.3 25.8958 207.264 25.9688 207.264L27.9443 207.291H30.4395V206.17C30.4395 205.336 30.4076 204.739 30.3438 204.379C30.64 204.393 30.9613 204.415 31.3076 204.447C31.4215 204.465 31.4785 204.509 31.4785 204.577C31.4785 204.636 31.4557 204.721 31.4102 204.83C31.3509 204.994 31.3213 205.418 31.3213 206.102V207.291H34.0625L36.0381 207.264C36.111 207.264 36.1475 207.3 36.1475 207.373L36.1201 208.959V210.429L36.1475 213.054ZM35.2656 211.536V208.077H31.3213V211.536H35.2656ZM30.4395 211.536V208.077H26.7412V211.536H30.4395ZM65.248 215.959C65.1159 216.091 64.9746 216.305 64.8242 216.602C64.7513 216.752 64.6875 216.827 64.6328 216.827C64.5781 216.827 64.5075 216.809 64.4209 216.772C62.2334 215.943 60.4264 214.897 59 213.635C57.6191 214.861 55.8236 215.888 53.6133 216.718C53.4811 216.754 53.4105 216.772 53.4014 216.772C53.3467 216.772 53.2806 216.702 53.2031 216.561C53.0664 216.301 52.9229 216.114 52.7725 216C55.124 215.212 56.9857 214.218 58.3574 213.02C57.1087 211.73 56.1562 209.98 55.5 207.77H55.0146L53.1621 207.797C53.0892 207.797 53.0527 207.76 53.0527 207.688V207.038C53.0527 206.965 53.0892 206.929 53.1621 206.929L55.0146 206.956H58.501V206.006C58.501 205.277 58.4622 204.762 58.3848 204.461C58.8268 204.479 59.1527 204.504 59.3623 204.536C59.4762 204.55 59.5332 204.591 59.5332 204.659C59.5332 204.705 59.5059 204.794 59.4512 204.926C59.4056 205.021 59.3828 205.377 59.3828 205.992V206.956H63.0742L64.9268 206.929C65.0088 206.929 65.0498 206.965 65.0498 207.038V207.688C65.0498 207.76 65.0088 207.797 64.9268 207.797L63.0742 207.77H62.4316C61.8255 210.007 60.8981 211.757 59.6494 213.02C61.126 214.273 62.9922 215.253 65.248 215.959ZM61.4814 207.77H56.3682C56.9834 209.747 57.8607 211.301 59 212.432C60.1393 211.279 60.9665 209.725 61.4814 207.77Z" fill="#282828"/>
<path d="M359.333 169.333L364 165L359.333 160.667" stroke="#0085CB" stroke-linecap="square"/>
<path d="M359.333 215.333L364 211L359.333 206.667" stroke="#0085CB" stroke-linecap="square"/>
<path d="M359.333 261.333L364 257L359.333 252.667" stroke="#0085CB" stroke-linecap="square"/>
<rect x="24" y="279" width="354" height="1" fill="#D0D0D0"/>
<rect x="24" y="233" width="354" height="1" fill="#D0D0D0"/>
<rect x="24" y="187" width="354" height="1" fill="#D0D0D0"/>
<rect x="24" y="141" width="354" height="1" fill="#D0D0D0"/>
<path d="M365.18 31.4023L360.639 26.8613L361.439 26.041L366 30.6016L370.521 26.0605L371.342 26.8613L366.801 31.4023L371.361 35.9434L370.541 36.7441L365.98 32.2031L361.42 36.7637L360.619 35.9629L365.18 31.4023Z" fill="#707070"/>
</svg>
